<?xml version="1.0" standalone="no"?>
<!DOCTYPE svg PUBLIC "-//W3C//DTD SVG 1.1//EN" "http://www.w3.org/Graphics/SVG/1.1/DTD/svg11.dtd" >
<svg xmlns="http://www.w3.org/2000/svg">
<metadata>Generated by IcoMoon</metadata>
<defs>
<font id="icomoon" horiz-adv-x="1024">
<font-face units-per-em="1024" ascent="960" descent="-64" />
<missing-glyph horiz-adv-x="1024" />
<glyph unicode="&#x20;" horiz-adv-x="512" d="" />
<glyph unicode="&#xe900;" d="M935.51-64h-847.019c-48.91 0-88.49 39.863-88.49 88.49v847.019c0 48.627 39.58 88.49 88.49 88.49h846.737c48.91 0 88.49-39.863 88.49-88.49v-847.019c0.283-48.627-39.58-88.49-88.208-88.49zM88.49 931.728c-33.078 0-60.219-27.141-60.219-60.219v-847.019c0-33.078 27.141-60.219 60.219-60.219h846.737c33.078 0 60.219 27.141 60.219 60.219v847.019c0 33.078-27.141 60.219-60.219 60.219h-846.737z" />
<glyph unicode="&#xe901;" d="M891.406-5.76h-758.812c-40.994 0-74.355 33.361-74.355 74.355v758.812c0 40.994 33.361 74.355 74.355 74.355h758.812c40.994 0 74.355-33.361 74.355-74.355v-758.812c0-40.994-33.361-74.355-74.355-74.355z" />
<glyph unicode="&#xe902;" d="M458.284 466.659c0 0 52.868 3.958 52.868 65.873s-43.256 92.166-97.82 92.166h-179.808v-346.045h179.808c0 0 109.977-3.393 109.977 102.061-0.283 0 4.523 85.946-65.025 85.946zM312.402 563.066h100.647c0 0 24.596 0 24.596-35.905s-14.419-41.277-30.816-41.277h-94.427v77.182zM407.96 340.285c-2.544 0-4.806 0-6.502 0h-89.056v92.448h100.647c0 0 36.47 0.565 36.47-47.496 0-40.428-27.141-44.669-41.559-44.952z" />
<glyph unicode="&#xe903;" d="M669.473 536.773c-133.16 0-132.877-132.877-132.877-132.877s-9.047-132.311 132.877-132.311c0 0 118.458-6.785 118.458 91.883h-60.784c0 0 1.979-37.319-55.412-37.319 0 0-60.784-3.958-60.784 60.219h179.242c-0.283 0 19.507 150.405-120.72 150.405zM610.103 432.733c0 0 7.351 53.433 60.784 53.433s52.868-53.433 52.868-53.433h-113.652z" />
<glyph unicode="&#xe904;" d="M595.119 604.342h142.772v-42.69h-142.772v42.69z" />
<glyph unicode="&#xe905;" horiz-adv-x="1028" d="M1025.849 448.231c0-268.135-206.187-488.654-467.388-509.457-14.331-2.774-29.125-2.774-43.456-2.774-38.371 0-75.355 3.698-110.953 12.020-229.764 51.316-401.741 256.116-401.741 500.211 0 282.467 229.764 511.307 512.231 511.307 282.929-0.462 511.307-228.84 511.307-511.307z" />
<glyph unicode="&#xe906;" horiz-adv-x="1028" d="M572.793 555.023c7.859 9.246 23.577 16.181 46.23 16.181 20.804 0 46.23-2.774 69.808-9.708l19.879 107.254c-40.683 14.331-83.214 18.492-126.671 18.492s-78.129-6.472-105.867-22.653c-27.738-15.718-46.23-33.286-56.863-58.25-10.171-22.191-15.718-60.562-15.718-107.716v-42.532h-84.601v-122.972h84.601v-309.743h154.409v309.743h112.34v122.972h-112.34v39.758c0 30.512 4.161 48.542 14.794 59.175z" />
<glyph unicode="&#xe907;" horiz-adv-x="1028" d="M1025.387 446.382c0-282.467-228.84-511.307-511.307-511.307-282.005 0-510.844 228.84-510.844 511.307-0.462 282.467 228.377 511.307 510.844 511.307s511.307-228.84 511.307-511.307z" />
<glyph unicode="&#xe908;" horiz-adv-x="1028" d="M717.493 722.377c-135.455 0-270.909 0-406.364 0-48.542 0-73.506-25.427-73.506-73.968 0-67.034 0-134.068 0-202.026 0-67.034 0-135.917 0-203.875 0-46.693 25.889-72.581 71.195-72.581 136.842 0 272.296 0 408.675 0 47.155 0 73.044 25.889 73.044 73.044 0 135.917 0 270.909 0 406.364 0 47.617-25.889 73.044-73.044 73.044zM672.65 659.966c55.014 0 55.014 0 55.014-55.014 0-53.627 0-53.627-54.089-53.627s-54.089 0-54.089 54.089c-0.462 54.552-0.462 54.552 53.165 54.552zM514.543 553.174c57.788 0 107.254-49.466 106.33-106.792-0.462-59.175-49.466-108.179-108.179-106.792-58.25 1.387-107.254 50.391-105.867 108.179s49.929 105.405 107.716 105.405zM727.202 266.084c-0.462-25.889-7.397-33.286-32.823-33.286-60.099 0-120.661 0-180.76 0-59.637 0-120.199 0-180.298 0-25.427 0-32.361 7.397-32.361 33.286 0 66.572 0 134.068-0.925 201.102 0 18.954 5.085 23.577 22.653 22.653 25.427-1.849 25.889-0.925 22.653-25.427-9.708-85.064 49.466-168.278 133.605-184.459 86.913-16.643 173.363 35.597 197.403 118.349 7.397 25.889 9.246 53.627 3.698 79.516-1.849 9.708 0.462 11.558 9.246 11.558 37.909 2.774 37.909 3.698 37.909-35.597 0-62.411 0-125.284 0-187.695z" />
<glyph unicode="&#xe909;" horiz-adv-x="1028" d="M1028.161 448.231c0-283.391-230.227-512.231-514.080-512.231-284.316 0-514.080 228.84-514.080 512.231 0 282.929 229.764 511.769 514.080 511.769 283.391 0 514.080-229.302 514.080-511.769z" />
<glyph unicode="&#xe90a;" horiz-adv-x="1028" d="M818.738 521.275c-34.21 141.927-156.721 238.548-304.657 240.397-19.417-0.462-40.683-2.312-60.099-6.010-207.574-41.145-314.366-269.522-214.046-453.519 3.698-5.085 3.698-9.708 2.774-15.256-14.331-47.617-27.738-96.621-40.683-144.701-2.312-8.784-2.312-8.784 5.548-6.010 50.853 13.407 100.782 26.351 151.173 38.833 4.161 1.387 7.859 1.387 11.095-0.925 64.722-32.823 133.605-41.607 205.262-28.663 171.977 32.823 284.316 206.649 243.633 375.852zM557.999 195.352c-15.256-2.774-29.125-4.161-36.060-3.236-55.014 0-99.857 12.020-141.002 35.597-5.548 3.698-10.171 4.623-15.718 2.774-28.2-6.935-55.939-14.331-83.677-21.266-5.548-1.849-6.472-0.925-5.085 5.085 7.859 25.889 14.331 52.24 22.653 78.591 1.849 7.397 1.387 12.482-3.236 18.492-56.863 91.536-54.089 204.8 9.246 289.864 65.647 87.837 156.721 124.359 263.975 101.244 106.33-22.191 174.288-91.074 198.328-196.479 34.21-143.776-63.335-287.090-209.423-310.667z" />
<glyph unicode="&#xe90b;" horiz-adv-x="1028" d="M595.446 301.681c-10.633-0.925-21.728 1.387-32.361 4.623-71.657 20.804-125.746 64.26-169.203 123.435-16.181 21.728-31.437 45.768-36.522 73.044-6.935 32.361 3.698 61.024 28.2 83.214 8.321 7.859 31.899 11.095 41.607 6.472 3.236-2.312 5.548-5.085 7.397-7.859 8.784-22.191 18.492-42.532 27.276-63.798 1.387-4.161 1.387-8.784-1.387-12.944-4.623-9.708-12.020-17.567-18.954-25.427-6.010-5.085-6.010-11.095-1.849-17.105 25.427-42.532 60.099-73.044 106.792-91.074 6.935-2.774 12.020-1.849 16.181 3.698 7.859 9.246 15.718 18.954 23.115 28.663 4.623 6.010 10.633 7.397 17.567 4.623 15.256-7.397 30.050-14.331 44.843-20.804 3.698-1.849 6.472-3.698 10.633-4.623 15.256-7.859 15.256-8.784 13.407-25.427-1.849-32.361-26.814-49.004-55.476-56.863-7.859-2.774-13.869-2.774-21.266-1.849z" />
<glyph unicode="&#xe90c;" d="M935.51-64h-847.019c-48.91 0-88.49 39.863-88.49 88.49v847.019c0 48.627 39.58 88.49 88.49 88.49h846.737c48.91 0 88.49-39.863 88.49-88.49v-847.019c0.283-48.627-39.58-88.49-88.208-88.49zM88.49 931.728c-33.078 0-60.219-27.141-60.219-60.219v-847.019c0-33.078 27.141-60.219 60.219-60.219h846.737c33.078 0 60.219 27.141 60.219 60.219v847.019c0 33.078-27.141 60.219-60.219 60.219h-846.737z" />
<glyph unicode="&#xe90d;" d="M891.406-5.76h-758.812c-40.994 0-74.355 33.361-74.355 74.355v758.812c0 40.994 33.361 74.355 74.355 74.355h758.812c40.994 0 74.355-33.361 74.355-74.355v-758.812c0-40.994-33.361-74.355-74.355-74.355z" />
<glyph unicode="&#xe90e;" d="M512.283 438.67l282.717 141.358v56.543h-537.162c0.283 0 0.283-395.803 0-395.803h537.162v282.717l-282.717-141.358-253.314 141.358v56.543l253.314-141.358z" />
<glyph unicode="&#xe90f;" d="M935.51-64h-847.019c-48.91 0-88.49 39.863-88.49 88.49v847.019c0 48.627 39.58 88.49 88.49 88.49h846.737c48.91 0 88.49-39.863 88.49-88.49v-847.019c0.283-48.627-39.58-88.49-88.208-88.49zM88.49 931.728c-33.078 0-60.219-27.141-60.219-60.219v-847.019c0-33.078 27.141-60.219 60.219-60.219h846.737c33.078 0 60.219 27.141 60.219 60.219v847.019c0 33.078-27.141 60.219-60.219 60.219h-846.737z" />
<glyph unicode="&#xe910;" d="M891.406-5.76h-758.812c-40.994 0-74.355 33.361-74.355 74.355v758.812c0 40.994 33.361 74.355 74.355 74.355h758.812c40.994 0 74.355-33.361 74.355-74.355v-758.812c0-40.994-33.361-74.355-74.355-74.355z" />
<glyph unicode="&#xe911;" d="M710.184 516.417c0 101.495-82.271 183.766-183.766 183.766s-183.766-82.271-183.766-183.766c0-7.351 0.565-14.419 1.414-21.486h-1.414c0-9.047 3.675-22.052 9.612-37.319-2.262-3.393 29.968-99.516 160.018-266.602 169.63 169.63 191.682 278.476 191.682 278.476l6.22 25.445h-1.414c0.848 7.351 1.414 14.419 1.414 21.486zM526.419 445.738c-39.015 0-70.679 31.664-70.679 70.679s31.664 70.679 70.679 70.679 70.679-31.664 70.679-70.679c0-39.015-31.664-70.679-70.679-70.679z" />
<glyph unicode="&#xe912;" d="M935.51-64h-847.019c-48.91 0-88.49 39.58-88.49 88.49v847.019c0 48.627 39.863 88.49 88.49 88.49h847.019c48.91 0 88.49-39.863 88.49-88.49v-847.019c0-48.627-39.863-88.49-88.49-88.49zM88.49 931.728c-33.078 0-60.219-27.141-60.219-60.219v-847.019c0-33.078 27.141-60.219 60.219-60.219h847.019c33.078 0 60.219 27.141 60.219 60.219v847.019c0 33.078-27.141 60.219-60.219 60.219h-847.019z" />
<glyph unicode="&#xe913;" d="M891.406-5.76h-758.812c-40.994 0-74.355 33.361-74.355 74.355v758.812c0 40.994 33.361 74.355 74.355 74.355h758.812c40.994 0 74.355-33.361 74.355-74.355v-758.812c0-40.994-33.361-74.355-74.355-74.355z" />
<glyph unicode="&#xe914;" d="M512 589.924c-77.464 0-140.51-63.046-140.51-140.51s63.046-140.51 140.51-140.51c77.464 0 140.51 63.046 140.51 140.51s-63.046 140.51-140.51 140.51zM512 359.51c-49.758 0-90.187 40.428-90.187 90.187s40.428 90.187 90.187 90.187c49.758 0 90.187-40.428 90.187-90.187s-40.428-90.187-90.187-90.187z" />
<glyph unicode="&#xe915;" d="M657.599 625.263c-17.528 0-31.947-14.419-31.947-31.947s14.419-31.947 31.947-31.947c17.528 0 31.947 14.136 31.947 31.947s-14.136 31.947-31.947 31.947z" />
<glyph unicode="&#xe916;" d="M741.001 676.152c-29.12 29.403-68.983 44.669-115.631 44.669h-226.739c-95.558 0-159.452-64.177-159.452-159.452v-225.325c0-47.779 15.832-88.49 46.083-117.61 29.12-28.272 68.983-43.256 114.783-43.256h224.194c46.931 0 86.794 14.984 115.914 43.256 29.403 28.837 44.952 68.983 44.952 116.479v226.456c-0.283 46.083-15.549 85.946-44.104 114.783zM734.498 334.631c0-33.643-10.178-61.35-29.968-80.574-19.225-18.942-47.214-28.837-80.857-28.837h-224.194c-32.512 0-60.219 10.178-80.009 29.12-20.073 19.507-30.816 47.779-30.816 81.422v225.608c0 33.361 10.178 61.067 29.403 80.292 19.225 18.942 46.931 29.12 80.009 29.12h226.739c32.795 0 60.501-10.178 80.009-29.685 19.225-19.507 29.403-46.931 29.403-79.443v-227.022z" />
<glyph unicode="&#xe917;" d="M935.51-64h-847.019c-48.91 0-88.49 39.863-88.49 88.49v847.019c0 48.627 39.58 88.49 88.49 88.49h846.737c48.91 0 88.49-39.863 88.49-88.49v-847.019c0.283-48.627-39.58-88.49-88.208-88.49zM88.49 931.728c-33.078 0-60.219-27.141-60.219-60.219v-847.019c0-33.078 27.141-60.219 60.219-60.219h846.737c33.078 0 60.219 27.141 60.219 60.219v847.019c0 33.078-27.141 60.219-60.219 60.219h-846.737z" />
<glyph unicode="&#xe918;" d="M891.406-5.76h-758.812c-40.994 0-74.355 33.361-74.355 74.355v758.812c0 40.994 33.361 74.355 74.355 74.355h758.812c40.994 0 74.355-33.361 74.355-74.355v-758.812c0-40.994-33.361-74.355-74.355-74.355z" />
<glyph unicode="&#xe919;" d="M484.011 693.115l56.543-84.815c0 0 28.272-28.272-56.543-56.543s0-113.087 0-113.087 56.543-84.815 84.815-56.543 84.815 56.543 113.087 0 56.543-84.815 56.543-113.087-113.087-84.815-169.63-56.543-226.173 226.173-226.173 310.988 0 141.358 56.543 169.63 84.815 0 84.815 0z" />
<glyph unicode="&#xe91a;" d="M935.51-64h-847.019c-48.627 0-88.49 39.863-88.49 88.49v847.019c0 48.627 39.863 88.49 88.49 88.49h847.019c48.91 0 88.49-39.863 88.49-88.49v-846.737c0-48.91-39.863-88.773-88.49-88.773zM88.49 931.728c-33.078 0-60.219-27.141-60.219-60.219v-846.737c0-33.078 27.141-60.219 60.219-60.219h847.019c33.078 0 60.219 27.141 60.219 60.219v846.737c0 33.078-27.141 60.219-60.219 60.219h-847.019z" />
<glyph unicode="&#xe91b;" d="M891.406-5.76h-758.812c-40.994 0-74.355 33.361-74.355 74.355v758.812c0 40.994 33.361 74.355 74.355 74.355h758.812c40.994 0 74.355-33.361 74.355-74.355v-758.812c0-40.994-33.361-74.355-74.355-74.355z" />
<glyph unicode="&#xe91c;" d="M704.53 641.661c-51.172 51.172-119.024 79.161-191.399 79.443-148.992 0-270.277-121.285-270.56-270.56 0-47.779 12.44-94.145 36.188-135.139l-38.449-140.227 143.337 37.601c39.58-21.486 83.967-32.795 129.202-32.795v0c148.992 0 270.277 121.285 270.56 270.56 0.283 72.093-27.989 139.945-78.878 191.117zM513.131 225.502v0c-40.428 0-80.009 10.743-114.5 31.382l-8.199 4.806-85.098-22.335 22.617 82.836-5.372 8.482c-22.617 35.905-34.491 77.182-34.491 119.589 0 123.83 100.93 224.76 224.76 224.76 59.936 0 116.479-23.465 158.887-65.873s65.873-98.951 65.873-159.17c0.283-123.547-100.647-224.477-224.477-224.477z" />
<glyph unicode="&#xe91d;" d="M636.395 393.718c-6.785 3.393-39.863 19.79-46.083 22.052s-10.743 3.393-15.267-3.393c-4.523-6.785-17.528-22.052-21.486-26.575s-7.916-5.089-14.701-1.696c-6.785 3.393-28.554 10.461-54.282 33.643-20.073 17.811-33.643 40.146-37.601 46.931s-0.283 10.461 2.827 13.853c3.11 3.11 6.785 7.916 10.178 11.874s4.523 6.785 6.785 11.309c2.262 4.523 1.131 8.482-0.565 11.874s-15.267 36.753-20.921 50.324c-5.372 13.288-11.026 11.309-15.267 11.591-3.958 0.283-8.482 0.283-13.005 0.283s-11.874-1.696-18.094-8.482c-6.22-6.785-23.748-23.183-23.748-56.261 0-33.361 24.314-65.308 27.706-69.831s47.779-72.658 115.348-102.061c16.115-7.068 28.837-11.026 38.449-14.136 16.115-5.089 30.816-4.523 42.69-2.544 13.005 1.979 39.863 16.398 45.517 32.23s5.654 29.403 3.958 32.23c-1.131 1.979-5.654 3.393-12.44 6.785z" />
<glyph unicode="&#xe9cb;" glyph-name="link" d="M440.236 324.234c-13.31 0-26.616 5.076-36.77 15.23-95.134 95.136-95.134 249.934 0 345.070l192 192c46.088 46.086 107.36 71.466 172.534 71.466s126.448-25.38 172.536-71.464c95.132-95.136 95.132-249.934 0-345.070l-87.766-87.766c-20.308-20.308-53.23-20.308-73.54 0-20.306 20.306-20.306 53.232 0 73.54l87.766 87.766c54.584 54.586 54.584 143.404 0 197.99-26.442 26.442-61.6 41.004-98.996 41.004s-72.552-14.562-98.996-41.006l-192-191.998c-54.586-54.586-54.586-143.406 0-197.992 20.308-20.306 20.306-53.232 0-73.54-10.15-10.152-23.462-15.23-36.768-15.23zM256-52c-65.176 0-126.45 25.38-172.534 71.464-95.134 95.136-95.134 249.934 0 345.070l87.764 87.764c20.308 20.306 53.234 20.306 73.54 0 20.308-20.306 20.308-53.232 0-73.54l-87.764-87.764c-54.586-54.586-54.586-143.406 0-197.992 26.44-26.44 61.598-41.002 98.994-41.002s72.552 14.562 98.998 41.006l192 191.998c54.584 54.586 54.584 143.406 0 197.992-20.308 20.308-20.306 53.232 0 73.54 20.306 20.306 53.232 20.306 73.54-0.002 95.132-95.134 95.132-249.932 0.002-345.068l-192.002-192c-46.090-46.088-107.364-71.466-172.538-71.466z" />
<glyph unicode="&#xe9ce;" glyph-name="eye" d="M512 768c-223.318 0-416.882-130.042-512-320 95.118-189.958 288.682-320 512-320 223.312 0 416.876 130.042 512 320-95.116 189.958-288.688 320-512 320zM764.45 598.296c60.162-38.374 111.142-89.774 149.434-150.296-38.292-60.522-89.274-111.922-149.436-150.296-75.594-48.218-162.89-73.704-252.448-73.704-89.56 0-176.858 25.486-252.452 73.704-60.158 38.372-111.138 89.772-149.432 150.296 38.292 60.524 89.274 111.924 149.434 150.296 3.918 2.5 7.876 4.922 11.86 7.3-9.96-27.328-15.41-56.822-15.41-87.596 0-141.382 114.616-256 256-256 141.382 0 256 114.618 256 256 0 30.774-5.452 60.268-15.408 87.598 3.978-2.378 7.938-4.802 11.858-7.302v0zM512 544c0-53.020-42.98-96-96-96s-96 42.98-96 96 42.98 96 96 96 96-42.982 96-96z" />
<glyph unicode="&#xea0a;" glyph-name="plus" d="M992 576h-352v352c0 17.672-14.328 32-32 32h-192c-17.672 0-32-14.328-32-32v-352h-352c-17.672 0-32-14.328-32-32v-192c0-17.672 14.328-32 32-32h352v-352c0-17.672 14.328-32 32-32h192c17.672 0 32 14.328 32 32v352h352c17.672 0 32 14.328 32 32v192c0 17.672-14.328 32-32 32z" />
<glyph unicode="&#xea0b;" glyph-name="minus" d="M0 544v-192c0-17.672 14.328-32 32-32h960c17.672 0 32 14.328 32 32v192c0 17.672-14.328 32-32 32h-960c-17.672 0-32-14.328-32-32z" />
</font>
</defs>
</svg>
