<?xml version="1.0" encoding="utf-8"?>
<!-- Generator: Adobe Illustrator 23.0.1, SVG Export Plug-In . SVG Version: 6.00 Build 0)  -->
<svg version="1.1" id="Camada_1" xmlns="http://www.w3.org/2000/svg" xmlns:xlink="http://www.w3.org/1999/xlink" x="0px" y="0px"
	 viewBox="0 0 242 50" style="enable-background:new 0 0 242 50;" xml:space="preserve">
<style type="text/css">
	.st0{fill:#A19892;}
</style>
<g>
	<g>
		<g>
			<g>
				<path class="st0" d="M116.3,31.9c-0.2,0.5-0.3,1-0.4,1.5c-0.1,0.5-0.1,0.9-0.1,1.3c0,0.8,0.3,1.4,0.9,1.8
					c0.6,0.4,1.6,0.6,2.9,0.7l0,1.2h-16.7v-1.2c1.7,0,2.9-0.3,3.7-1c0.8-0.7,1.5-2.2,2.1-4.5l6-22.5c0.1-0.5,0.2-1,0.3-1.5
					c0.1-0.5,0.1-0.9,0.1-1.3c0-0.8-0.3-1.4-0.9-1.7c-0.6-0.4-1.6-0.6-2.9-0.7l0-1.3h16.8v1.3c-1.7,0-2.9,0.3-3.7,1
					c-0.8,0.7-1.5,2.2-2.1,4.5L116.3,31.9z"/>
				<path class="st0" d="M126.8,16.8l-0.1-1.4c1.5-0.2,3.1-0.4,5-0.7c1.8-0.3,3.7-0.6,5.7-0.9l-2.8,9.2c2-3.2,3.9-5.6,5.7-7.1
					c1.8-1.5,3.6-2.2,5.4-2.2c1.3,0,2.3,0.3,3,1c0.7,0.7,1,1.7,1,3c0,0.7-0.1,1.6-0.4,2.8c-0.3,1.2-0.7,2.6-1.3,4.3l-2.5,7.5
					c0,0.1,0,0.1-0.1,0.2c-0.2,0.6-0.3,1-0.3,1.2c0,0.3,0.1,0.6,0.3,0.8c0.2,0.2,0.4,0.3,0.7,0.3c0.4,0,0.8-0.2,1.2-0.7
					c0.4-0.4,1.2-1.5,2.3-3.1l1.2,0.8c-1.6,2.5-3.1,4.3-4.4,5.5c-1.3,1.1-2.7,1.7-4,1.7c-1.1,0-2-0.3-2.6-1c-0.6-0.7-0.9-1.7-0.9-3
					c0-0.8,0.2-1.8,0.5-3.1c0.3-1.3,0.9-3.2,1.8-5.8l1.9-5.5c0.2-0.5,0.3-0.9,0.3-1.2c0.1-0.3,0.1-0.6,0.1-0.8
					c0-0.3-0.1-0.6-0.3-0.8c-0.2-0.2-0.4-0.3-0.7-0.3c-1.9,0-3.9,1.9-6.2,5.8c-2.3,3.9-4.1,8.9-5.5,15h-6.4l4.5-16.8
					c0.3-1,0.5-1.7,0.6-2.2c0.1-0.5,0.2-0.9,0.2-1.2c0-0.5-0.2-0.9-0.5-1.1c-0.4-0.2-0.9-0.4-1.7-0.4H126.8z"/>
				<path class="st0" d="M156.5,38c-1-0.6-1.7-1.1-2.2-1.7c-0.4-0.6-0.7-1.2-0.7-1.9c0-0.9,0.4-1.7,1.1-2.5c0.7-0.8,2-1.6,3.6-2.5
					c-1.3-0.8-2.3-1.7-2.9-2.7c-0.6-0.9-0.9-2-0.9-3.3c0-2.5,1.1-4.8,3.3-6.7c2.2-1.9,4.8-2.9,7.8-2.9c1.4,0,2.7,0.2,4,0.7
					c1.3,0.4,2.4,1.1,3.5,2h4.7l-0.3,2.2h-3c0.1,0.3,0.1,0.6,0.2,0.9c0,0.3,0.1,0.6,0.1,1c0,2.7-1.1,5-3.3,6.8
					c-2.2,1.9-5,2.8-8.3,2.8c-0.3,0-0.8,0-1.2-0.1c-0.5,0-1-0.1-1.6-0.1c-0.5,0.3-0.8,0.6-1,0.9c-0.2,0.3-0.3,0.6-0.3,0.9
					c0,0.4,0.2,0.7,0.7,1c0.5,0.3,1.5,0.7,2.9,1.1c4,1.2,6.6,2.4,7.8,3.4c1.2,1,1.8,2.4,1.8,4c0,2.4-1.2,4.3-3.5,5.9
					c-2.3,1.5-5.3,2.3-8.9,2.3c-3.1,0-5.6-0.5-7.5-1.6c-1.9-1.1-2.8-2.5-2.8-4.2c0-1.2,0.5-2.3,1.6-3.2
					C152.4,39.6,154.1,38.7,156.5,38z M158.6,38.7c-1.5,0.7-2.6,1.4-3.2,2.1c-0.7,0.7-1,1.6-1,2.5c0,1.3,0.6,2.3,1.8,3.1
					c1.2,0.8,2.7,1.3,4.4,1.3c1.8,0,3.3-0.4,4.4-1.2c1.2-0.8,1.7-1.7,1.7-2.9c0-1-0.5-1.8-1.5-2.5C164.2,40.5,162,39.7,158.6,38.7z
					 M166.2,15.5c-0.7,0-1.3,0.2-1.9,0.6s-1.1,1.1-1.6,2c-0.7,1.2-1.2,2.5-1.5,3.7c-0.4,1.3-0.5,2.4-0.5,3.5c0,1,0.2,1.8,0.6,2.3
					c0.4,0.5,1,0.8,1.8,0.8c1.4,0,2.6-1,3.8-3c1.1-2,1.7-4.2,1.7-6.7c0-1.1-0.2-1.9-0.6-2.5C167.6,15.8,167,15.5,166.2,15.5z"/>
				<path class="st0" d="M186.6,23.4c1.8-3.5,3.4-6,4.7-7.5c1.3-1.5,2.6-2.2,3.9-2.2c1,0,1.7,0.3,2.2,0.9c0.5,0.6,0.8,1.5,0.8,2.7
					c0,1.2-0.3,2.1-0.8,2.7c-0.6,0.7-1.3,1-2.3,1c-0.9,0-1.6-0.3-2.2-0.9c-0.6-0.6-0.9-0.9-1-0.9c-1.1,0-2.5,1.8-4.3,5.4
					c-1.8,3.6-3.4,8.2-4.8,13.8h-6.4l4.5-16.8c0.3-1,0.5-1.7,0.6-2.2c0.1-0.5,0.2-0.9,0.2-1.2c0-0.5-0.2-0.9-0.5-1.1
					c-0.4-0.2-0.9-0.4-1.7-0.4H179l-0.1-1.4c1.5-0.2,3.1-0.4,5-0.7c1.8-0.3,3.7-0.6,5.7-0.9L186.6,23.4z"/>
				<path class="st0" d="M201.8,21.7c0.2-0.8,0.4-1.5,0.5-2c0.1-0.6,0.2-1,0.2-1.4c0-0.5-0.2-0.9-0.5-1.1c-0.4-0.2-0.9-0.4-1.7-0.4
					h-0.5l-0.1-1.4c2-0.2,3.9-0.5,5.6-0.8c1.7-0.3,3.3-0.5,4.8-0.8l-4.8,17.8c-0.1,0.5-0.2,1-0.3,1.4c-0.1,0.4-0.1,0.8-0.1,1
					c0,0.3,0.1,0.6,0.2,0.7c0.2,0.2,0.4,0.3,0.6,0.3c0.4,0,0.9-0.3,1.5-0.9c0.6-0.6,1.3-1.6,2.2-2.8l1.1,0.7
					c-1.4,2.4-2.8,4.2-4.1,5.3c-1.4,1.2-2.8,1.7-4.3,1.7c-1.2,0-2.2-0.3-2.8-1c-0.7-0.7-1-1.7-1-2.9c0-0.6,0.2-1.7,0.6-3.3l0.1-0.3
					L201.8,21.7z M205.3,5.3c0-1,0.3-1.8,1-2.5c0.7-0.7,1.5-1,2.5-1c1,0,1.8,0.3,2.5,1c0.7,0.7,1,1.5,1,2.5c0,1-0.3,1.8-1,2.5
					c-0.7,0.7-1.5,1-2.5,1c-1,0-1.8-0.3-2.5-1C205.6,7.2,205.3,6.3,205.3,5.3z"/>
				<path class="st0" d="M226.8,32.4c-1.4,2.4-2.8,4.1-4.2,5.2c-1.4,1.1-2.9,1.6-4.5,1.6c-1.8,0-3.2-0.6-4.1-1.9
					c-1-1.3-1.5-3.1-1.5-5.4c0-2.2,0.5-4.5,1.6-6.9c1-2.5,2.5-4.6,4.3-6.6c1.4-1.6,2.9-2.8,4.2-3.5c1.4-0.8,2.8-1.1,4.2-1.1
					c0.7,0,1.4,0.1,2.1,0.3c0.7,0.2,1.3,0.5,1.8,1l2-6.9c0.2-0.6,0.3-1.1,0.3-1.4c0.1-0.4,0.1-0.7,0.1-1c0-0.6-0.2-1-0.6-1.3
					c-0.4-0.3-1.1-0.4-2.1-0.4h-0.4V2.6c1.3-0.1,2.7-0.3,4.3-0.5c1.6-0.2,3.8-0.6,6.6-1.1l-8.4,30.9c0,0.2-0.1,0.4-0.2,0.7
					c-0.3,1.1-0.4,1.8-0.4,2.1c0,0.1,0.1,0.2,0.2,0.3c0.1,0.1,0.3,0.1,0.5,0.1c0.4,0,0.9-0.3,1.4-0.9c0.5-0.6,1.2-1.5,2-2.9l1.2,0.8
					c-1.6,2.5-3,4.3-4.2,5.3c-1.2,1.1-2.4,1.6-3.7,1.6c-1,0-1.8-0.3-2.4-0.9c-0.6-0.6-0.8-1.5-0.8-2.6c0-0.4,0-0.9,0.1-1.4
					C226.5,33.8,226.6,33.2,226.8,32.4z M227.9,15.9c-0.7,0-1.4,0.3-2.1,0.9c-0.7,0.6-1.4,1.5-2.2,2.8c-1.4,2.2-2.5,4.5-3.3,6.8
					c-0.8,2.3-1.2,4.2-1.2,5.8c0,0.9,0.2,1.6,0.6,2.2c0.4,0.5,1,0.8,1.7,0.8c0.8,0,1.6-0.4,2.5-1.1c0.8-0.8,1.6-1.9,2.3-3.3
					c1.1-2.2,2-4.5,2.6-6.7c0.7-2.3,1-4.1,1-5.3c0-0.8-0.2-1.5-0.5-2C228.9,16.1,228.4,15.9,227.9,15.9z"/>
			</g>
		</g>
		<path class="st0" d="M44.2,38.2c0,0-5.1,4-13.6,2.7c-5-0.8-7.3-1.5-9.9-2.2c0.6-0.2,1.1-0.5,1.7-0.8c2.7-1.4,5.2-3.4,7.4-5.9
			c2.1-2.5,3.7-5.2,4.9-8.1c1.2-3,1.8-5.9,1.8-8.8c0-4-1.2-7.1-3.5-9.4c-2.3-2.3-5.5-3.5-9.4-3.5c-2.4,0-4.8,0.5-7.1,1.5
			c-2.3,1-4.5,2.5-6.4,4.4c-2.8,2.7-4.9,5.7-6.5,9c-1.5,3.3-2.3,6.5-2.3,9.7c0,4.1,1.1,7.3,3.4,9.7c0.6,0.6,1.3,1.2,2,1.6
			c-3.8,1.5-6.4,4-6.4,4L1,42.7c0,0,3.7-4.4,8.4-3.4c0.4,0.1,0.8,0.2,1.2,0.3c5.3,1.7,16.1,7.3,24.7,3.9c9.1-3.7,10-4.4,10-4.4
			L44.2,38.2z M10.5,36.2c-0.9-1.2-1.4-3-1.4-5.3c0-2.7,0.4-5.7,1.3-9.1c0.9-3.4,2.1-6.6,3.7-9.6c1.4-2.7,2.8-4.7,4.3-6.1
			c1.5-1.3,3.1-2,4.8-2c1.7,0,3.1,0.6,4,1.9c0.9,1.2,1.4,3,1.4,5.2c0,2.3-0.4,5.1-1.2,8.3c-0.8,3.2-1.9,6.3-3.2,9.2
			c-1.4,3.1-2.9,5.4-4.6,7c-1.1,1-2.1,1.7-3.3,2c-0.8-0.2-1.6-0.3-2.6-0.5c-0.8-0.1-1.6-0.2-2.4-0.1C11.1,36.9,10.8,36.6,10.5,36.2z
			"/>
		<g>
			<path class="st0" d="M64.5,32.3c-1.4,2.4-2.8,4.1-4.2,5.2c-1.4,1.1-2.9,1.6-4.5,1.6c-1.8,0-3.2-0.6-4.1-1.9
				c-1-1.3-1.5-3.1-1.5-5.4c0-2.2,0.5-4.5,1.6-6.9c1-2.5,2.5-4.6,4.3-6.6c1.4-1.6,2.9-2.8,4.2-3.5c1.4-0.8,2.8-1.1,4.2-1.1
				c0.7,0,1.4,0.1,2.1,0.3c0.7,0.2,1.3,0.5,1.8,1l2-6.9c0.2-0.6,0.3-1.1,0.3-1.4c0.1-0.4,0.1-0.7,0.1-1c0-0.6-0.2-1-0.6-1.3
				c-0.4-0.3-1.1-0.4-2.1-0.4h-0.4V2.4c1.3-0.1,2.7-0.3,4.3-0.5c1.6-0.2,3.8-0.6,6.6-1.1l-8.4,30.9c0,0.2-0.1,0.4-0.2,0.7
				c-0.3,1.1-0.4,1.8-0.4,2.1c0,0.1,0.1,0.2,0.2,0.3C70,35,70.1,35,70.3,35c0.4,0,0.9-0.3,1.4-0.9c0.5-0.6,1.2-1.5,2-2.9l1.2,0.8
				c-1.6,2.5-3,4.3-4.2,5.3c-1.2,1.1-2.4,1.6-3.7,1.6c-1,0-1.8-0.3-2.4-0.9c-0.6-0.6-0.8-1.5-0.8-2.6c0-0.4,0-0.9,0.1-1.4
				C64.1,33.6,64.3,33,64.5,32.3z M65.5,15.8c-0.7,0-1.4,0.3-2.1,0.9c-0.7,0.6-1.4,1.5-2.2,2.8c-1.4,2.2-2.5,4.5-3.3,6.8
				c-0.8,2.3-1.2,4.2-1.2,5.8c0,0.9,0.2,1.6,0.6,2.2c0.4,0.5,1,0.8,1.7,0.8c0.8,0,1.6-0.4,2.5-1.1c0.8-0.8,1.6-1.9,2.3-3.3
				c1.1-2.2,2-4.5,2.6-6.7c0.7-2.3,1-4.1,1-5.3c0-0.8-0.2-1.5-0.5-2C66.6,16,66.1,15.8,65.5,15.8z"/>
			<path class="st0" d="M95.1,31.7c-1.3,2.5-2.8,4.4-4.4,5.6c-1.7,1.2-3.5,1.8-5.7,1.8c-2.4,0-4.3-0.8-5.7-2.3
				c-1.4-1.5-2.1-3.6-2.1-6.2c0-2.1,0.5-4.2,1.5-6.3c1-2.2,2.3-4.1,4.1-5.9c1.5-1.5,3.1-2.7,4.6-3.4c1.6-0.8,3.1-1.1,4.7-1.1
				c1.8,0,3.2,0.4,4.3,1.3c1,0.9,1.6,2.1,1.6,3.5c0,2.3-1.2,4.3-3.6,6.1c-2.4,1.8-5.7,3-9.9,3.7c-0.1,0.5-0.2,1-0.3,1.5
				C84,30.4,84,30.8,84,31.3c0,1.3,0.3,2.3,1,3c0.7,0.7,1.6,1.1,2.8,1.1c1,0,2-0.4,2.9-1.2c1-0.8,1.9-2,2.9-3.6L95.1,31.7z
				 M84.7,26.7c2.6-0.6,4.6-1.8,6.3-3.5c1.6-1.7,2.4-3.6,2.4-5.5c0-0.7-0.2-1.2-0.5-1.6c-0.3-0.4-0.7-0.6-1.3-0.6
				c-1.2,0-2.5,1-3.7,3C86.7,20.5,85.6,23.2,84.7,26.7z"/>
		</g>
	</g>
</g>
</svg>
