<?xml version="1.0" encoding="utf-8"?>
<!-- Generator: Adobe Illustrator 23.0.1, SVG Export Plug-In . SVG Version: 6.00 Build 0)  -->
<svg version="1.1" id="Camada_1" xmlns="http://www.w3.org/2000/svg" xmlns:xlink="http://www.w3.org/1999/xlink" x="0px" y="0px"
	 viewBox="0 0 279 81" style="enable-background:new 0 0 279 81;" xml:space="preserve">
<style type="text/css">
	.st0{fill:#BCBFC4;}
	.st1{fill:#A19892;}
</style>
<g>
	<g>
		<path class="st0" d="M74.1,62.3h1.7l-0.3,0.6h-2.2c-5.4,10.2-8.5,18.2-13.7,18.2c-1.7,0-3-1.2-3-2.8c0-1.6,1.4-3.2,2.9-3.2
			c0.8,0,1.5,0.7,1.5,1.6c0,0.8-0.8,1.4-1.7,1.4c-0.4,0-0.6-0.2-1-0.8c0.6-0.1,0.9-0.3,0.9-0.5c0-0.4-0.3-0.8-0.6-0.8
			c-0.6,0-1.6,1.3-1.6,2.6c0,1.2,1.2,2.1,2.6,2.1c3.9,0,5.8-8,11.3-17.8h-1.8l0.3-0.6h1.9c1.5-2.6,6.4-10.4,9.3-10.4
			c0.6,0,1.2,0.6,1.2,1.1C81.7,55.4,78.7,60,74.1,62.3z M80,52.4c-1.1,0-5.4,7.7-6.4,9.9c5.3-3.9,6.9-7.6,6.9-9
			C80.5,52.8,80.3,52.4,80,52.4z"/>
		<path class="st0" d="M85.8,66.6c-0.6,0.2-0.9,0.4-1.4,0.5c-0.7,1.2-3.2,3.9-6.1,3.9C77,70.9,76,69.4,76,68c0-3.5,3.6-6.8,7-6.8
			c1.4,0,2.5,1.2,2.5,2.9c0,1.1-0.5,1.9-0.7,2.4c0.3-0.1,0.6-0.2,0.9-0.3c1.7-0.8,2.9-1.9,3.7-2.7l0.2,0.2
			C88.9,64.6,87.4,65.7,85.8,66.6z M82.9,61.6c-1.8,0-5.1,5.7-5.1,7.8c0,0.7,0.2,1,0.6,1c1.1,0,2.2-1,3.8-3.7
			c-1.2-0.4-1.7-0.9-1.7-1.5c0-0.6,0.5-1,0.9-1c0.4,0,0.6,0.2,0.6,0.6c0,0.6-0.8,0.6-0.8,0.6c0.2,0.5,0.8,0.9,1.2,0.9
			c0.9-2,1.2-3,1.2-4.1C83.6,61.9,83.4,61.6,82.9,61.6z"/>
		<path class="st0" d="M90.4,70.9c-1,0-1.6-0.8-1.7-2.3c0-1.3,2.6-4.5,2.6-5.3c0-0.2,0-0.2-0.1-0.2c-0.6,0-0.8,0.9-1.9,0.9
			c-0.5,0-0.8-0.5-0.8-1.2c0-1,0.9-2.3,1.8-2.3c0.4,0,0.7,0.3,0.7,0.7c0,0.6-0.5,1.4-1.1,2.1c1.6-1.3,2.4-2.1,3.2-2.1
			c0.6,0,1.1,0.6,1.1,1.2c0,0.6-0.3,1-0.6,1.5l-2.4,4.1c-0.4,0.6-0.6,1.1-0.6,1.3c0,0.6,0.4,0.8,0.8,0.8c2.1,0,4.8-3.4,7-6.6
			l0.2,0.2C94.6,69.8,92.5,70.9,90.4,70.9z M90.3,61c-0.6,0-1.3,1.3-1.3,1.9c0,0.4,0.2,0.5,0.3,0.5c0.6-0.7,1.2-1.7,1.2-2.1
			C90.5,61.1,90.5,61,90.3,61z"/>
		<path class="st0" d="M109.3,62.2l-0.6,1.3c1.6-1.5,3.2-2.3,3.9-2.3c0.7,0,1.3,0.6,1.3,1.3c0,1.8-4,6.6-4,7.1
			c0,0.3,0.2,0.6,0.4,0.6c1.4,0,4.9-4.4,6.8-6.6l0.2,0.2c-2.4,3-5.5,7.1-7.6,7.1c-0.9,0-1.7-0.6-1.7-1.5c0-1.4,3.9-6.1,3.9-7
			c0-0.1-0.1-0.3-0.2-0.3c-1,0-2.6,1.4-3.2,2.4c-2.4,4.1-3.1,6.1-3.8,6.1c-0.5,0-0.8-0.2-1.1-0.2c-0.4,0-0.6,0.5-1.2,0.8
			c1.5-3,4.4-8.7,8.2-14.2c2-2.8,4.7-6.2,6.3-6.2c0.6,0,1.1,0.3,1.1,0.9C118.1,56.3,110.8,61.4,109.3,62.2z M116.4,51.5
			c-1.2,0-3.9,4.9-6.8,9.9c4.5-3,7.1-7.2,7.1-9.1C116.7,51.9,116.6,51.5,116.4,51.5z"/>
		<path class="st0" d="M124.9,66.6c-0.6,0.2-0.9,0.4-1.4,0.5c-0.7,1.2-3.2,3.9-6.1,3.9c-1.4,0-2.4-1.5-2.4-2.8c0-3.5,3.6-6.8,7-6.8
			c1.4,0,2.5,1.2,2.5,2.9c0,1.1-0.5,1.9-0.7,2.4c0.3-0.1,0.6-0.2,0.9-0.3c1.7-0.8,2.9-1.9,3.7-2.7l0.2,0.2
			C127.9,64.6,126.5,65.7,124.9,66.6z M122,61.6c-1.8,0-5.1,5.7-5.1,7.8c0,0.7,0.2,1,0.6,1c1.1,0,2.2-1,3.8-3.7
			c-1.2-0.4-1.7-0.9-1.7-1.5c0-0.6,0.5-1,0.9-1c0.4,0,0.6,0.2,0.6,0.6c0,0.6-0.8,0.6-0.8,0.6c0.2,0.5,0.8,0.9,1.2,0.9
			c0.9-2,1.2-3,1.2-4.1C122.7,61.9,122.4,61.6,122,61.6z"/>
		<path class="st0" d="M141.2,67.9c-1.5,1.7-2.5,3-4,3c-1,0-1.8-0.8-1.8-1.9c0-1.1,3.7-5.5,3.7-6.4c0-0.3-0.2-0.5-0.6-0.5
			c-0.6,0-2.4,1.9-3.6,3.4c-0.3,0.3-2.1,4-2.6,4.7c-0.2,0.3-0.6,0.5-0.8,0.5c-0.4,0-0.7-0.3-1-0.3c-0.2,0-1.1,0.9-1.1,0.9
			s4.6-8.4,4.6-8.8c0-0.2-0.1-0.4-0.3-0.4c-0.8,0-2.3,1.5-3.5,2.8c-1.7,1.8-3,5.8-3.7,5.8c-0.6,0-1-0.3-1.3-0.3
			c-0.2,0-1.1,0.9-1.1,0.9l4.3-8.1c0.6-1.2,0.8-1.7,1.3-1.7c0.5,0,0.9,0.2,1.2,0.2c0.2,0,0.7-0.8,1.1-0.8l-1.6,2.9
			c2.1-2.2,3.4-2.6,4.3-2.6c1.5,0,1.4,2.1,1.4,2.1c1.7-1.6,2.2-2.1,3.6-2.1c0.8,0,1.4,0.7,1.4,1.5c0,0.1-0.2,0.5-0.5,1.1l-3,4.8
			c-0.2,0.3-0.5,0.7-0.5,1c0,0.4,0.3,0.7,0.6,0.7c0.3,0,1.8-1.2,3.2-2.7l3.7-4.1l0.2,0.2L141.2,67.9z"/>
		<path class="st0" d="M145.3,70.9c-1.7,0-2.7-1.3-2.7-2.8c0-4.3,4.7-6.9,7-6.9c0.9,0,1.7,0.7,1.7,1.7c0,3-5.3,4.2-6.3,4.2
			c-0.3,0.7-0.6,1.1-0.6,2.1c0,0.6,0.2,1.1,0.8,1.1c3.1,0,7.7-5,8.8-6.9l0.2,0.2C153.4,65.3,148.8,70.9,145.3,70.9z M149.2,61.6
			c-0.9,0-2.3,1.7-3.9,4.7c1.7,0,4.5-2.9,4.5-4C149.9,61.9,149.6,61.6,149.2,61.6z"/>
	</g>
	<g>
		<g>
			<g>
				<path class="st1" d="M134.6,35.9c-0.2,0.6-0.3,1.2-0.4,1.8c-0.1,0.6-0.2,1.1-0.2,1.5c0,0.9,0.3,1.6,1,2.1
					c0.7,0.5,1.8,0.7,3.3,0.8l0,1.4h-19.4v-1.4c1.9,0,3.4-0.4,4.3-1.2s1.7-2.5,2.4-5.2l7-26.1c0.2-0.6,0.3-1.1,0.4-1.7
					c0.1-0.6,0.1-1.1,0.1-1.5c0-0.9-0.3-1.6-1-2c-0.7-0.4-1.8-0.7-3.4-0.8l0-1.5h19.4v1.5c-1.9,0-3.3,0.4-4.2,1.1
					c-0.9,0.8-1.7,2.5-2.4,5.2L134.6,35.9z"/>
				<path class="st1" d="M146.8,18.4l-0.1-1.6c1.7-0.2,3.6-0.4,5.7-0.8c2.1-0.3,4.3-0.7,6.6-1.1l-3.2,10.7c2.4-3.7,4.6-6.5,6.6-8.2
					c2.1-1.7,4.1-2.6,6.3-2.6c1.5,0,2.7,0.4,3.5,1.2c0.8,0.8,1.2,1.9,1.2,3.4c0,0.8-0.2,1.8-0.5,3.2c-0.3,1.4-0.8,3.1-1.5,5
					l-2.9,8.7c0,0.1-0.1,0.2-0.1,0.3c-0.2,0.7-0.3,1.2-0.3,1.4c0,0.4,0.1,0.7,0.3,0.9c0.2,0.2,0.5,0.4,0.8,0.4
					c0.4,0,0.9-0.3,1.4-0.8c0.5-0.5,1.4-1.7,2.7-3.5l1.4,0.9c-1.9,2.9-3.6,5-5.1,6.3c-1.5,1.3-3.1,1.9-4.7,1.9
					c-1.3,0-2.4-0.4-3.1-1.2c-0.7-0.8-1.1-2-1.1-3.4c0-0.9,0.2-2.1,0.5-3.6c0.4-1.4,1.1-3.7,2.1-6.8l2.2-6.3c0.2-0.6,0.3-1,0.4-1.4
					c0.1-0.3,0.1-0.6,0.1-0.9c0-0.4-0.1-0.7-0.3-0.9c-0.2-0.2-0.5-0.4-0.9-0.4c-2.2,0-4.6,2.2-7.2,6.7c-2.6,4.5-4.7,10.3-6.4,17.3
					h-7.4l5.2-19.4c0.3-1.1,0.5-2,0.7-2.6c0.1-0.6,0.2-1.1,0.2-1.4c0-0.6-0.2-1-0.6-1.3c-0.4-0.3-1.1-0.4-1.9-0.4H146.8z"/>
				<path class="st1" d="M181,42.9c-1.1-0.7-2-1.3-2.5-2c-0.5-0.7-0.8-1.4-0.8-2.2c0-1,0.4-1.9,1.3-2.9c0.9-0.9,2.3-1.9,4.2-2.9
					c-1.6-1-2.7-2-3.4-3.1c-0.7-1.1-1.1-2.4-1.1-3.8c0-2.9,1.3-5.5,3.9-7.8c2.6-2.2,5.6-3.4,9.1-3.4c1.6,0,3.1,0.3,4.6,0.8
					c1.4,0.5,2.8,1.3,4.1,2.3h5.4l-0.3,2.6h-3.4c0.1,0.4,0.1,0.7,0.2,1.1c0,0.4,0.1,0.7,0.1,1.1c0,3.1-1.3,5.7-3.9,7.9
					c-2.6,2.2-5.8,3.2-9.6,3.2c-0.4,0-0.9,0-1.4-0.1c-0.5,0-1.1-0.1-1.8-0.1c-0.5,0.3-0.9,0.7-1.2,1c-0.3,0.3-0.4,0.7-0.4,1
					c0,0.4,0.3,0.8,0.9,1.2c0.6,0.4,1.7,0.8,3.4,1.3c4.7,1.4,7.7,2.7,9.1,3.9c1.4,1.2,2.1,2.7,2.1,4.6c0,2.8-1.3,5-4,6.8
					c-2.7,1.8-6.1,2.7-10.3,2.7c-3.6,0-6.5-0.6-8.6-1.8c-2.1-1.2-3.2-2.8-3.2-4.8c0-1.4,0.6-2.7,1.8-3.7
					C176.3,44.8,178.3,43.8,181,42.9z M183.6,43.8c-1.7,0.8-3,1.6-3.8,2.4c-0.8,0.8-1.2,1.8-1.2,2.9c0,1.5,0.7,2.7,2.1,3.6
					c1.4,1,3.1,1.4,5.1,1.4c2.1,0,3.8-0.4,5.1-1.3s2-2,2-3.3c0-1.1-0.6-2.1-1.8-2.9C190,45.9,187.4,44.9,183.6,43.8z M192.4,16.9
					c-0.8,0-1.5,0.2-2.2,0.7c-0.6,0.5-1.3,1.2-1.8,2.3c-0.8,1.4-1.4,2.9-1.8,4.3c-0.4,1.5-0.6,2.8-0.6,4.1c0,1.2,0.2,2.1,0.7,2.7
					c0.5,0.6,1.2,0.9,2.1,0.9c1.6,0,3-1.2,4.3-3.5c1.3-2.3,2-4.9,2-7.7c0-1.3-0.2-2.2-0.6-2.8C193.9,17.2,193.3,16.9,192.4,16.9z"/>
				<path class="st1" d="M216,26.1c2.1-4.1,3.9-7,5.4-8.7c1.5-1.7,3-2.6,4.5-2.6c1.1,0,2,0.4,2.5,1.1c0.6,0.7,0.9,1.7,0.9,3.1
					c0,1.3-0.3,2.4-1,3.2c-0.6,0.8-1.5,1.1-2.6,1.1c-1,0-1.9-0.4-2.6-1.1c-0.7-0.7-1.1-1.1-1.1-1.1c-1.3,0-2.9,2.1-5,6.3
					c-2,4.2-3.9,9.5-5.6,16h-7.4l5.2-19.4c0.3-1.1,0.5-2,0.7-2.6c0.1-0.6,0.2-1.1,0.2-1.4c0-0.6-0.2-1-0.6-1.3
					c-0.4-0.3-1.1-0.4-1.9-0.4h-0.6l-0.1-1.6c1.7-0.2,3.6-0.4,5.7-0.8c2.1-0.3,4.3-0.7,6.6-1.1L216,26.1z"/>
				<path class="st1" d="M233.6,24.1c0.3-0.9,0.5-1.7,0.6-2.4c0.1-0.7,0.2-1.2,0.2-1.6c0-0.6-0.2-1-0.6-1.3
					c-0.4-0.3-1.1-0.4-1.9-0.4h-0.6l-0.1-1.6c2.3-0.3,4.5-0.6,6.5-0.9c2-0.3,3.9-0.6,5.6-1l-5.6,20.7c-0.2,0.6-0.3,1.1-0.4,1.6
					c-0.1,0.5-0.1,0.9-0.1,1.2c0,0.4,0.1,0.6,0.3,0.9c0.2,0.2,0.4,0.3,0.7,0.3c0.5,0,1.1-0.4,1.8-1.1c0.7-0.7,1.6-1.8,2.5-3.3
					l1.2,0.8c-1.6,2.8-3.2,4.8-4.8,6.2c-1.6,1.3-3.3,2-5,2c-1.4,0-2.5-0.4-3.3-1.2c-0.8-0.8-1.2-1.9-1.2-3.3c0-0.7,0.2-2,0.7-3.8
					l0.1-0.3L233.6,24.1z M237.5,5.2c0-1.1,0.4-2.1,1.2-2.9c0.8-0.8,1.7-1.2,2.9-1.2c1.1,0,2.1,0.4,2.9,1.2c0.8,0.8,1.2,1.8,1.2,2.9
					c0,1.1-0.4,2.1-1.2,2.9c-0.8,0.8-1.8,1.2-2.9,1.2c-1.1,0-2.1-0.4-2.9-1.2C237.9,7.3,237.5,6.3,237.5,5.2z"/>
				<path class="st1" d="M262.5,36.5c-1.6,2.7-3.2,4.7-4.8,6c-1.6,1.2-3.3,1.9-5.2,1.9c-2.1,0-3.6-0.7-4.8-2.2
					c-1.1-1.5-1.7-3.5-1.7-6.2c0-2.5,0.6-5.2,1.8-8c1.2-2.8,2.8-5.4,4.9-7.6c1.7-1.8,3.3-3.2,4.9-4.1c1.6-0.9,3.2-1.3,4.9-1.3
					c0.8,0,1.6,0.1,2.4,0.4c0.8,0.2,1.5,0.6,2.1,1.1l2.3-8c0.2-0.7,0.3-1.2,0.4-1.7c0.1-0.5,0.1-0.8,0.1-1.2c0-0.7-0.2-1.2-0.7-1.5
					c-0.5-0.3-1.3-0.4-2.4-0.4h-0.4V2c1.5-0.1,3.2-0.3,5-0.6c1.8-0.3,4.4-0.7,7.6-1.2l-9.7,35.8c0,0.2-0.1,0.5-0.2,0.8
					c-0.3,1.2-0.5,2-0.5,2.4c0,0.1,0.1,0.3,0.2,0.4c0.1,0.1,0.3,0.2,0.5,0.2c0.5,0,1-0.3,1.6-1c0.6-0.7,1.4-1.8,2.4-3.3l1.4,1
					c-1.8,2.9-3.5,4.9-4.9,6.2c-1.4,1.2-2.8,1.8-4.2,1.8c-1.2,0-2.1-0.4-2.8-1.1c-0.7-0.7-1-1.7-1-3c0-0.5,0.1-1,0.2-1.6
					C262.1,38.1,262.2,37.4,262.5,36.5z M263.7,17.4c-0.8,0-1.7,0.3-2.5,1c-0.8,0.7-1.6,1.8-2.6,3.2c-1.6,2.6-2.9,5.2-3.8,7.9
					c-0.9,2.7-1.4,4.9-1.4,6.7c0,1,0.2,1.9,0.7,2.5c0.5,0.6,1.2,0.9,2,0.9c0.9,0,1.9-0.4,2.9-1.3c1-0.9,1.8-2.2,2.6-3.8
					c1.3-2.6,2.3-5.2,3.1-7.8c0.8-2.6,1.1-4.7,1.1-6.2c0-1-0.2-1.7-0.6-2.3C264.9,17.7,264.4,17.4,263.7,17.4z"/>
			</g>
		</g>
		<path class="st1" d="M51.1,43.2c0,0-5.9,4.7-15.7,3.2c-5.7-0.9-8.5-1.7-11.4-2.5c0.7-0.3,1.3-0.6,2-0.9c3.2-1.6,6.1-3.9,8.6-6.8
			c2.4-2.8,4.3-6,5.7-9.4c1.4-3.4,2-6.8,2-10.1c0-4.6-1.3-8.2-4-10.9c-2.7-2.7-6.3-4-10.9-4c-2.8,0-5.5,0.6-8.2,1.8
			c-2.7,1.2-5.2,2.9-7.4,5.1C8.5,11.6,6,15.1,4.2,18.9c-1.8,3.8-2.7,7.5-2.7,11.2c0,4.7,1.3,8.5,4,11.2C6.2,42,7,42.6,7.8,43.2
			c-4.4,1.7-7.4,4.6-7.4,4.6l0.7,0.7c0,0,4.2-5.1,9.7-3.9c0.4,0.1,0.9,0.3,1.4,0.4c6.1,2,18.6,8.5,28.6,4.5
			c10.5-4.2,11.6-5.1,11.6-5.1L51.1,43.2z M12.1,40.9c-1.1-1.4-1.6-3.5-1.6-6.1c0-3.1,0.5-6.6,1.6-10.6c1-3.9,2.5-7.6,4.3-11.2
			c1.6-3.2,3.3-5.5,5-7c1.7-1.5,3.6-2.3,5.6-2.3c2,0,3.6,0.7,4.7,2.1c1.1,1.4,1.6,3.5,1.6,6.1c0,2.7-0.5,5.9-1.4,9.6
			c-0.9,3.7-2.1,7.3-3.7,10.7c-1.6,3.6-3.4,6.2-5.3,8c-1.2,1.2-2.5,1.9-3.8,2.3c-0.9-0.2-1.9-0.4-3-0.5c-1-0.1-1.9-0.2-2.8-0.1
			C12.8,41.7,12.4,41.3,12.1,40.9z"/>
		<g>
			<path class="st1" d="M74.6,36.3c-1.6,2.7-3.2,4.7-4.8,6c-1.6,1.2-3.3,1.9-5.2,1.9c-2.1,0-3.6-0.7-4.8-2.2
				c-1.1-1.5-1.7-3.5-1.7-6.2c0-2.5,0.6-5.2,1.8-8c1.2-2.8,2.8-5.4,4.9-7.6c1.7-1.8,3.3-3.2,4.9-4.1c1.6-0.9,3.2-1.3,4.9-1.3
				c0.8,0,1.6,0.1,2.4,0.4c0.8,0.2,1.5,0.6,2.1,1.1l2.3-8c0.2-0.7,0.3-1.2,0.4-1.7c0.1-0.5,0.1-0.8,0.1-1.2c0-0.7-0.2-1.2-0.7-1.5
				c-0.5-0.3-1.3-0.4-2.4-0.4h-0.4V1.8c1.5-0.1,3.2-0.3,5-0.6C85.2,1,87.7,0.6,91,0l-9.7,35.8c0,0.2-0.1,0.5-0.2,0.8
				c-0.3,1.2-0.5,2-0.5,2.4c0,0.1,0.1,0.3,0.2,0.4c0.1,0.1,0.3,0.2,0.5,0.2c0.5,0,1-0.3,1.6-1c0.6-0.7,1.4-1.8,2.4-3.3l1.4,1
				c-1.8,2.9-3.5,4.9-4.9,6.2c-1.4,1.2-2.8,1.8-4.2,1.8c-1.2,0-2.1-0.4-2.8-1.1c-0.7-0.7-1-1.7-1-3c0-0.5,0.1-1,0.2-1.6
				C74.2,37.9,74.3,37.2,74.6,36.3z M75.8,17.2c-0.8,0-1.7,0.3-2.5,1c-0.8,0.7-1.6,1.8-2.6,3.2c-1.6,2.6-2.9,5.2-3.8,7.9
				c-0.9,2.7-1.4,4.9-1.4,6.7c0,1,0.2,1.9,0.7,2.5c0.5,0.6,1.2,0.9,2,0.9c0.9,0,1.9-0.4,2.9-1.3c1-0.9,1.8-2.2,2.6-3.8
				c1.3-2.6,2.3-5.2,3.1-7.8c0.8-2.6,1.1-4.7,1.1-6.2c0-1-0.2-1.7-0.6-2.3C77,17.5,76.5,17.2,75.8,17.2z"/>
			<path class="st1" d="M110,35.6c-1.5,2.9-3.2,5-5.1,6.4c-1.9,1.4-4.1,2.1-6.6,2.1c-2.8,0-5-0.9-6.6-2.7c-1.6-1.8-2.4-4.2-2.4-7.2
				c0-2.4,0.6-4.8,1.7-7.3c1.1-2.5,2.7-4.8,4.7-6.8c1.8-1.8,3.6-3.1,5.4-4c1.8-0.9,3.6-1.3,5.4-1.3c2.1,0,3.7,0.5,4.9,1.5
				c1.2,1,1.8,2.4,1.8,4.1c0,2.7-1.4,5-4.2,7.1c-2.8,2-6.6,3.5-11.5,4.3c-0.1,0.6-0.2,1.2-0.3,1.7c-0.1,0.5-0.1,1.1-0.1,1.6
				c0,1.5,0.4,2.7,1.2,3.5c0.8,0.9,1.9,1.3,3.2,1.3c1.2,0,2.3-0.4,3.4-1.3c1.1-0.9,2.2-2.3,3.3-4.2L110,35.6z M98,29.8
				c3-0.7,5.4-2.1,7.3-4.1c1.9-2,2.8-4.1,2.8-6.4c0-0.8-0.2-1.4-0.5-1.9c-0.4-0.5-0.9-0.7-1.5-0.7c-1.4,0-2.9,1.2-4.3,3.5
				C100.2,22.7,99,25.9,98,29.8z"/>
		</g>
	</g>
</g>
</svg>
