<?xml version="1.0" encoding="utf-8"?>
<!-- Generator: Adobe Illustrator 23.0.1, SVG Export Plug-In . SVG Version: 6.00 Build 0)  -->
<svg version="1.1" id="Camada_1" xmlns="http://www.w3.org/2000/svg" xmlns:xlink="http://www.w3.org/1999/xlink" x="0px" y="0px"
	 viewBox="0 0 125.2 125.2" style="enable-background:new 0 0 125.2 125.2;" xml:space="preserve">
<style type="text/css">
	.st0{fill:#FFFFFF;}
	.st1{fill:#22A74A;}
	.st2{fill:#1C93D1;}
	.st3{clip-path:url(#SVGID_2_);}
	.st4{fill:#AFAEB2;}
	.st5{fill:#D7D7DB;}
	.st6{fill:#E6E7E8;}
	.st7{fill:#E8EEED;}
	.st8{fill:#0A2D3D;}
	.st9{fill:#9E9E9E;}
	.st10{fill:#929292;}
	.st11{fill-rule:evenodd;clip-rule:evenodd;fill:#FFFFFF;}
	.st12{fill:#DCDCDC;}
</style>
<g>
	<circle class="st0" cx="62.6" cy="62.6" r="62.6"/>
	<g>
		<g>
			<path class="st1" d="M65.7,21.1v83c21.5-1.6,38.6-19.6,38.6-41.5S87.2,22.7,65.7,21.1z"/>
			<path class="st2" d="M21,62.6c0,21.9,17,39.9,38.6,41.5v-83C38,22.7,21,40.7,21,62.6z"/>
		</g>
		<g>
			<defs>
				<circle id="SVGID_1_" cx="62" cy="64.5" r="46.6"/>
			</defs>
			<clipPath id="SVGID_2_">
				<use xlink:href="#SVGID_1_"  style="overflow:visible;"/>
			</clipPath>
			<g class="st3">
				<polygon class="st4" points="78.4,38.9 78.8,38.9 79.4,58.7 77.8,58.7 				"/>
				<path class="st0" d="M73.7,51.5h39.7c0,0-4.1,3.7-5,4.7s-3.7,2.4-5.8,2.4s-17.5,0-17.5,0s-4.1-0.4-7.1-3.2S74.1,51.6,73.7,51.5z
					"/>
				<polygon class="st5" points="67.1,19.1 67.1,58.7 69.3,58.7 69.3,22.7 				"/>
				<rect x="62.2" y="19.1" class="st6" width="5" height="39.6"/>
				<polygon class="st5" points="58.2,19.1 58.2,58.7 61,58.7 61,22.7 				"/>
				<rect x="53.2" y="19.1" class="st6" width="5" height="39.6"/>
				<rect x="59.6" y="41.3" class="st7" width="2.6" height="4.1"/>
				<path class="st0" d="M23.4,58.7c0,0,5.3-5.5,12.5-5.5s11.6,5.5,11.6,5.5H23.4z"/>
				<rect x="7.7" y="58.7" class="st8" width="117.5" height="5.8"/>
				<polygon class="st0" points="42.7,64.5 52.1,58.7 48.6,58.7 38,64.5 				"/>
				<rect x="7.7" y="64.5" class="st0" width="117.5" height="15.3"/>
				<path class="st4" d="M78.8,39.1c0,0,1-0.7,1.5-0.3c0.5,0.4,1.3,0.6,1.7,0.2c0.4-0.4,0.7-0.4,0.7-0.4V41c0,0-0.5-0.1-0.7,0.1
					c-0.2,0.1-0.8,0-1.3-0.3c-0.6-0.3-1.8,0.4-1.8,0.4L78.8,39.1z"/>
				<path class="st9" d="M79.6,39.7c0,0,1-0.6,1.4-0.5c0,0,0.6,0.4,1,0.3c0,0-0.2,0.7-0.5,0.7s-0.6,0.2-0.7,0.2
					C80.6,40.5,80.2,39.9,79.6,39.7z"/>
				<circle class="st10" cx="80.9" cy="39.8" r="0.3"/>
			</g>
		</g>
		<path class="st0" d="M62.6,2.3c-33.3,0-60.3,27-60.3,60.3c0,33.3,27,60.3,60.3,60.3s60.3-27,60.3-60.3
			C122.9,29.3,95.9,2.3,62.6,2.3z M62.6,107.3c-24.7,0-44.7-20-44.7-44.7c0-24.7,20-44.7,44.7-44.7s44.7,20,44.7,44.7
			C107.3,87.3,87.3,107.3,62.6,107.3z"/>
		<path class="st8" d="M62.6,5.8C31.2,5.8,5.8,31.2,5.8,62.6c0,31.4,25.4,56.8,56.8,56.8c31.4,0,56.8-25.4,56.8-56.8
			C119.4,31.2,94,5.8,62.6,5.8z M62.6,16.7c25.4,0,45.9,20.6,45.9,45.9c0,4.5-0.7,8.9-1.9,13H18.6c-1.2-4.1-1.9-8.5-1.9-13
			C16.7,37.2,37.2,16.7,62.6,16.7z"/>
		<path class="st8" d="M62.6,2C29.2,2,2,29.2,2,62.6c0,33.4,27.1,60.6,60.6,60.6s60.6-27.1,60.6-60.6C123.2,29.2,96,2,62.6,2z
			 M62.6,121.6c-32.6,0-59-26.4-59-59s26.4-59,59-59s59,26.4,59,59S95.2,121.6,62.6,121.6z"/>
		<g>
			<path class="st0" d="M20,88.6l1.3,2l1.4-0.3l0.8,1.2l-6.8,1.5l-0.7-1l4.2-5.6l0.8,1.2L20,88.6z M20.2,90.9l-0.9-1.4l-1.6,2
				L20.2,90.9z"/>
			<path class="st0" d="M17.5,83.8c-0.1,0.1-0.2,0.2-0.2,0.4c0,0.2,0,0.4,0.1,0.8c0.3,1.1,0.1,1.9-0.6,2.2c-0.4,0.2-0.8,0.2-1.2,0
				s-0.7-0.5-1-1.1c-0.3-0.6-0.4-1.1-0.3-1.5c0.1-0.5,0.4-0.8,0.8-1l0.6,1.2c-0.2,0.1-0.3,0.2-0.3,0.4s0,0.4,0.1,0.6
				c0.1,0.2,0.2,0.3,0.4,0.4c0.1,0.1,0.3,0.1,0.4,0c0.1-0.1,0.2-0.2,0.2-0.3c0-0.2,0-0.4-0.1-0.7c-0.1-0.3-0.1-0.6-0.2-0.8
				c-0.1-0.7,0.2-1.2,0.7-1.5c0.4-0.2,0.8-0.2,1.2,0c0.4,0.2,0.7,0.6,1,1.1c0.2,0.4,0.3,0.7,0.3,1.1c0,0.3-0.1,0.7-0.2,0.9
				c-0.1,0.3-0.4,0.5-0.6,0.6L18,85.4c0.2-0.1,0.3-0.3,0.4-0.5c0-0.2,0-0.4-0.1-0.7c-0.1-0.2-0.2-0.4-0.4-0.4
				C17.7,83.7,17.6,83.7,17.5,83.8z"/>
			<path class="st0" d="M15.5,79.1c-0.1,0.1-0.2,0.2-0.3,0.3c0,0.2,0,0.4,0,0.8c0.2,1.2-0.1,1.9-0.8,2.1c-0.4,0.1-0.8,0.1-1.2-0.1
				s-0.7-0.6-0.9-1.2c-0.2-0.6-0.2-1.1-0.1-1.5c0.1-0.4,0.4-0.7,0.9-0.9l0.4,1.2c-0.2,0.1-0.3,0.2-0.4,0.3c-0.1,0.2-0.1,0.3,0,0.6
				c0.1,0.2,0.2,0.3,0.3,0.4c0.1,0.1,0.3,0.1,0.4,0c0.1,0,0.2-0.2,0.3-0.3c0-0.2,0-0.4,0-0.7c-0.1-0.3-0.1-0.6-0.1-0.8
				c0-0.7,0.3-1.2,0.9-1.4c0.4-0.2,0.8-0.1,1.2,0.2c0.4,0.3,0.7,0.7,0.9,1.2c0.1,0.4,0.2,0.7,0.2,1.1c0,0.3-0.1,0.6-0.3,0.9
				c-0.2,0.3-0.4,0.4-0.7,0.5l-0.4-1.1c0.2-0.1,0.3-0.2,0.4-0.4c0.1-0.2,0-0.4,0-0.7c-0.1-0.2-0.2-0.4-0.3-0.5
				C15.8,79,15.7,79,15.5,79.1z"/>
			<path class="st0" d="M13.7,77.1c-0.5,0.1-0.9,0.1-1.3,0c-0.4-0.1-0.8-0.3-1-0.6c-0.3-0.3-0.5-0.7-0.6-1.1
				c-0.2-0.6-0.1-1.2,0.2-1.7c0.3-0.5,0.8-0.9,1.4-1.1l0.3-0.1c0.7-0.2,1.3-0.1,1.9,0.2c0.5,0.3,0.9,0.8,1.1,1.5
				c0.2,0.7,0.1,1.3-0.2,1.8C15,76.6,14.5,76.9,13.7,77.1L13.7,77.1z M13.4,75.9c0.4-0.1,0.8-0.3,1-0.5c0.2-0.2,0.3-0.5,0.2-0.8
				c-0.1-0.3-0.3-0.5-0.5-0.6c-0.3-0.1-0.7-0.1-1.2,0c-0.4,0.1-0.8,0.3-1,0.5c-0.2,0.2-0.3,0.5-0.2,0.8c0.1,0.3,0.3,0.5,0.5,0.6
				C12.6,76,12.9,76,13.4,75.9z"/>
			<path class="st0" d="M13.6,69.2c0-0.2-0.1-0.4-0.3-0.5c-0.2-0.1-0.3-0.2-0.5-0.2l-0.2-1.2c0.3,0,0.6,0,0.9,0.1
				c0.3,0.1,0.5,0.3,0.7,0.6c0.2,0.3,0.3,0.6,0.4,1c0.1,0.7,0,1.3-0.4,1.7c-0.4,0.5-1,0.7-1.7,0.8l-0.1,0c-0.7,0.1-1.4,0-1.8-0.3
				c-0.5-0.3-0.8-0.8-0.9-1.5c-0.1-0.6,0-1.1,0.3-1.5c0.3-0.4,0.7-0.7,1.3-0.7l0.2,1.2c-0.2,0-0.4,0.1-0.6,0.3s-0.2,0.4-0.2,0.6
				c0,0.3,0.2,0.5,0.4,0.6c0.2,0.1,0.6,0.1,1.1,0.1l0.1,0c0.5-0.1,0.8-0.2,1-0.4C13.5,69.7,13.6,69.5,13.6,69.2z"/>
			<path class="st0" d="M8.1,66.3c-0.2,0-0.4,0-0.5-0.2c-0.1-0.1-0.2-0.3-0.2-0.5c0-0.2,0-0.4,0.2-0.5c0.1-0.1,0.3-0.2,0.5-0.2
				c0.2,0,0.4,0,0.5,0.2c0.1,0.1,0.2,0.3,0.2,0.5s0,0.4-0.2,0.5C8.5,66.2,8.3,66.3,8.1,66.3z M14.1,64.6l0.1,1.3l-4.8,0.3l-0.1-1.3
				L14.1,64.6z"/>
			<path class="st0" d="M14.1,60.4c-0.1,0.1-0.3,0.1-0.4,0.1c0.3,0.3,0.5,0.7,0.5,1.2c0,0.5-0.2,0.9-0.4,1.2c-0.3,0.3-0.6,0.5-1,0.4
				c-0.5,0-0.9-0.2-1.2-0.6c-0.3-0.4-0.4-0.9-0.4-1.7l0-0.6l-0.3,0c-0.2,0-0.4,0-0.5,0.2c-0.1,0.1-0.2,0.3-0.2,0.5
				c0,0.2,0,0.4,0.1,0.5c0.1,0.1,0.2,0.2,0.4,0.2l0,1.3c-0.3,0-0.5-0.1-0.8-0.3c-0.2-0.2-0.4-0.4-0.5-0.7c-0.1-0.3-0.2-0.7-0.2-1.1
				c0-0.6,0.2-1.1,0.5-1.4c0.3-0.3,0.7-0.5,1.3-0.5l2.1,0.1c0.5,0,0.8,0,1-0.2l0.1,0L14.1,60.4z M13.2,61.5c0-0.2,0-0.4-0.1-0.5
				c-0.1-0.2-0.2-0.3-0.3-0.4l-0.8,0l0,0.5c0,0.6,0.2,1,0.6,1l0.1,0c0.2,0,0.3,0,0.4-0.2C13.1,61.8,13.2,61.7,13.2,61.5z"/>
			<path class="st0" d="M13.6,55.9c0-0.2,0-0.4-0.1-0.6C13.3,55.1,13.2,55,13,55l0.2-1.2c0.3,0,0.6,0.2,0.9,0.4
				c0.2,0.2,0.4,0.5,0.5,0.8c0.1,0.3,0.1,0.7,0.1,1c-0.1,0.7-0.4,1.2-0.9,1.5c-0.5,0.3-1.1,0.5-1.9,0.4l-0.1,0
				c-0.7-0.1-1.3-0.4-1.7-0.8c-0.4-0.5-0.5-1-0.4-1.7c0.1-0.6,0.3-1.1,0.7-1.4c0.4-0.3,0.9-0.4,1.4-0.4l-0.2,1.2
				c-0.3,0-0.5,0-0.6,0.1c-0.2,0.1-0.3,0.3-0.3,0.6c0,0.3,0,0.5,0.2,0.7c0.2,0.2,0.5,0.3,1,0.4l0.1,0c0.5,0.1,0.9,0,1.1-0.1
				C13.4,56.4,13.5,56.2,13.6,55.9z M14.5,55.6l0.3,0.1c0.1-0.4,0.4-0.6,0.9-0.6c0.3,0,0.6,0.2,0.7,0.5c0.2,0.3,0.2,0.7,0.1,1.2
				l-0.7-0.1c0-0.3-0.1-0.5-0.3-0.5c-0.1,0-0.2,0-0.3,0.1s-0.1,0.2-0.2,0.5l-0.6-0.2L14.5,55.6z"/>
			<path class="st0" d="M9.2,47.9c0.3,0.1,0.6,0.2,0.8,0.5c0.2,0.2,0.2,0.5,0.2,0.8c0,0.1-0.1,0.2-0.1,0.3c0,0.1-0.1,0.2-0.2,0.3
				S9.6,50,9.6,50c0,0.1-0.1,0.1-0.1,0.2c0,0.1,0,0.2,0,0.3c0.1,0.1,0.1,0.1,0.3,0.2l-0.2,0.7c-0.3-0.1-0.6-0.2-0.8-0.5
				c-0.2-0.2-0.2-0.5-0.2-0.8c0-0.1,0.1-0.2,0.1-0.2c0-0.1,0.1-0.2,0.2-0.3c0.1-0.2,0.2-0.3,0.2-0.3c0-0.1,0.1-0.1,0.1-0.2
				c0-0.1,0-0.2,0-0.3c-0.1-0.1-0.1-0.2-0.3-0.2L9.2,47.9z M15.6,50.3c-0.1,0-0.3,0-0.5,0c0.3,0.4,0.3,0.8,0.2,1.3
				c-0.1,0.5-0.3,0.8-0.7,1c-0.3,0.2-0.7,0.3-1.1,0.2c-0.5-0.1-0.8-0.4-1-0.8c-0.2-0.4-0.2-1,0-1.7l0.1-0.6l-0.3-0.1
				c-0.2-0.1-0.4,0-0.6,0c-0.2,0.1-0.3,0.2-0.3,0.5c-0.1,0.2,0,0.4,0,0.5c0.1,0.1,0.2,0.2,0.4,0.3l-0.3,1.3
				c-0.3-0.1-0.5-0.2-0.7-0.4c-0.2-0.2-0.3-0.5-0.4-0.8c-0.1-0.3,0-0.7,0.1-1.1c0.1-0.6,0.4-1,0.8-1.3c0.4-0.3,0.8-0.3,1.4-0.2
				l2,0.5c0.4,0.1,0.8,0.1,1.1,0.1l0.1,0L15.6,50.3z M14.5,51.1c0-0.2,0-0.4,0-0.5c0-0.2-0.1-0.3-0.2-0.4l-0.8-0.2l-0.1,0.5
				c-0.2,0.6,0,1,0.4,1.2l0.1,0c0.2,0,0.3,0,0.4-0.1C14.4,51.4,14.5,51.3,14.5,51.1z"/>
			<path class="st0" d="M13.9,47.3c-0.5-0.2-0.8-0.4-1.1-0.7c-0.3-0.3-0.5-0.7-0.5-1c-0.1-0.4,0-0.8,0.1-1.2c0.2-0.6,0.6-1,1.1-1.3
				c0.5-0.3,1.1-0.3,1.8-0.1l0.3,0.1c0.7,0.3,1.2,0.7,1.5,1.2c0.3,0.5,0.3,1.1,0.1,1.8c-0.2,0.7-0.6,1.1-1.2,1.3
				C15.3,47.6,14.7,47.6,13.9,47.3L13.9,47.3z M14.4,46.1c0.4,0.2,0.8,0.2,1.1,0.1s0.5-0.3,0.6-0.6c0.1-0.3,0.1-0.6-0.1-0.8
				c-0.2-0.2-0.5-0.5-1-0.6c-0.4-0.2-0.8-0.2-1.1-0.1c-0.3,0.1-0.5,0.3-0.6,0.6c-0.1,0.3-0.1,0.6,0.1,0.8
				C13.6,45.8,13.9,46,14.4,46.1z"/>
			<path class="st0" d="M17.1,39.4c-0.7-0.4-1.1-0.8-1.3-1.3c-0.2-0.5-0.2-1,0.1-1.5c0.2-0.4,0.6-0.7,1-0.7l-2.1-1.2l0.7-1.1
				l5.9,3.5l-0.6,1l-0.5-0.2c0.2,0.5,0.1,0.9-0.1,1.4c-0.3,0.5-0.7,0.8-1.3,0.8C18.4,40,17.8,39.8,17.1,39.4z M17.8,38.4
				c0.4,0.2,0.7,0.3,1,0.3c0.3,0,0.5-0.2,0.7-0.4c0.2-0.3,0.2-0.7,0-1l-1.7-1c-0.4,0-0.7,0.1-0.9,0.5C16.7,37.3,17,37.8,17.8,38.4z"
				/>
			<path class="st0" d="M23.7,33.5c-0.1,0-0.3-0.1-0.4-0.1c0.1,0.5,0,0.9-0.3,1.3c-0.3,0.4-0.6,0.6-1,0.7c-0.4,0.1-0.8,0-1.1-0.2
				c-0.4-0.3-0.6-0.7-0.6-1.2c0-0.5,0.2-1,0.6-1.6l0.3-0.5L21,31.8c-0.2-0.1-0.4-0.2-0.5-0.2c-0.2,0-0.3,0.1-0.5,0.3
				c-0.1,0.2-0.2,0.3-0.2,0.5c0,0.2,0.1,0.3,0.2,0.4l-0.8,1c-0.2-0.2-0.4-0.4-0.5-0.7c-0.1-0.3-0.1-0.6,0-0.9c0.1-0.3,0.2-0.7,0.5-1
				c0.3-0.5,0.7-0.8,1.2-0.9c0.4-0.1,0.9,0,1.3,0.3l1.7,1.2c0.4,0.3,0.7,0.4,1,0.5l0.1,0L23.7,33.5z M22.4,33.9
				c0.1-0.2,0.2-0.3,0.2-0.5c0-0.2,0-0.3-0.1-0.5l-0.7-0.5l-0.3,0.4c-0.4,0.5-0.4,0.9-0.1,1.2l0.1,0c0.1,0.1,0.3,0.1,0.4,0.1
				C22.1,34.1,22.3,34,22.4,33.9z"/>
			<path class="st0" d="M25.9,28.8c-0.1-0.1-0.3-0.1-0.4-0.1c-0.2,0.1-0.4,0.2-0.7,0.4c-0.9,0.7-1.7,0.8-2.2,0.3
				c-0.3-0.3-0.5-0.7-0.4-1.1c0-0.5,0.2-0.9,0.6-1.3c0.4-0.5,0.8-0.7,1.3-0.8c0.5-0.1,0.9,0,1.2,0.3l-0.9,1
				c-0.1-0.1-0.3-0.2-0.5-0.2c-0.2,0-0.3,0.1-0.5,0.3c-0.1,0.2-0.2,0.3-0.2,0.5c0,0.2,0,0.3,0.2,0.4c0.1,0.1,0.2,0.1,0.4,0.1
				c0.2,0,0.4-0.2,0.6-0.4c0.3-0.2,0.5-0.4,0.7-0.5c0.6-0.3,1.2-0.3,1.7,0.1c0.3,0.3,0.5,0.7,0.4,1.1c0,0.5-0.3,0.9-0.7,1.4
				c-0.3,0.3-0.6,0.5-0.9,0.7c-0.3,0.1-0.6,0.2-0.9,0.2c-0.3,0-0.6-0.1-0.8-0.3l0.8-0.9c0.2,0.1,0.4,0.2,0.6,0.2
				c0.2,0,0.4-0.2,0.6-0.4c0.2-0.2,0.3-0.4,0.3-0.5C26.1,29,26.1,28.9,25.9,28.8z"/>
			<path class="st0" d="M30.2,23.4l1.4,1.8l-1,0.8l-4-5.1l2-1.6c0.4-0.3,0.8-0.5,1.2-0.6c0.4-0.1,0.8-0.1,1.1,0.1
				c0.4,0.1,0.7,0.4,0.9,0.7c0.4,0.5,0.5,1,0.4,1.6c-0.1,0.6-0.5,1.1-1.1,1.6L30.2,23.4z M29.5,22.6l0.9-0.7
				c0.3-0.2,0.4-0.5,0.5-0.7c0-0.2,0-0.5-0.2-0.7C30.5,20.2,30.3,20,30,20c-0.3,0-0.5,0-0.8,0.2l-1,0.8L29.5,22.6z"/>
			<path class="st0" d="M33.9,20.4c-0.3-0.4-0.4-0.8-0.4-1.2c0-0.4,0-0.8,0.2-1.2c0.2-0.4,0.5-0.7,0.9-0.9c0.6-0.3,1.1-0.5,1.7-0.3
				c0.6,0.1,1,0.5,1.4,1l0.2,0.3c0.4,0.6,0.5,1.2,0.4,1.8c-0.1,0.6-0.5,1.1-1.1,1.4c-0.6,0.4-1.2,0.5-1.8,0.3
				C34.8,21.5,34.3,21.1,33.9,20.4L33.9,20.4z M35,19.8c0.2,0.4,0.5,0.6,0.8,0.8c0.3,0.1,0.5,0.1,0.8-0.1c0.3-0.2,0.4-0.4,0.4-0.7
				c0-0.3-0.1-0.7-0.4-1.1c-0.2-0.4-0.5-0.6-0.8-0.8c-0.3-0.1-0.6-0.1-0.8,0.1c-0.3,0.2-0.4,0.4-0.4,0.7C34.6,19,34.7,19.4,35,19.8z
				"/>
			<path class="st0" d="M41.3,19l-1.2,0.6L37,13.4l1.2-0.6L41.3,19z"/>
			<path class="st0" d="M40.8,11.7l1.3-0.6l-0.6,1.8l-1,0.4L40.8,11.7z M43.9,17.8l-1.2,0.5l-1.9-4.4l1.2-0.5L43.9,17.8z"/>
			<path class="st0" d="M46.8,15.7c0.2-0.1,0.4-0.2,0.5-0.4c0.1-0.2,0.1-0.4,0.1-0.6l1.1-0.4c0.1,0.3,0.1,0.6,0,0.9
				c-0.1,0.3-0.2,0.6-0.5,0.8c-0.2,0.2-0.5,0.4-0.9,0.5c-0.7,0.2-1.2,0.2-1.8-0.1c-0.5-0.3-0.9-0.8-1.2-1.5l0-0.1
				c-0.2-0.7-0.2-1.3,0-1.9c0.2-0.5,0.7-0.9,1.3-1.2c0.6-0.2,1.1-0.2,1.5,0c0.5,0.2,0.8,0.6,1,1.1l-1.1,0.4
				c-0.1-0.2-0.2-0.4-0.4-0.5c-0.2-0.1-0.4-0.1-0.6,0c-0.3,0.1-0.5,0.3-0.5,0.5c-0.1,0.3,0,0.6,0.1,1.1l0,0.1
				c0.2,0.5,0.3,0.8,0.6,0.9C46.2,15.8,46.5,15.8,46.8,15.7z"/>
			<path class="st0" d="M48.5,9.8c0-0.2,0-0.4,0.1-0.5c0.1-0.2,0.3-0.3,0.5-0.3c0.2-0.1,0.4,0,0.6,0.1c0.2,0.1,0.3,0.2,0.3,0.4
				c0,0.2,0,0.4-0.1,0.5c-0.1,0.2-0.3,0.3-0.5,0.3c-0.2,0.1-0.4,0-0.6-0.1C48.7,10.1,48.6,10,48.5,9.8z M51.4,15.4l-1.3,0.3L48.9,11
				l1.3-0.3L51.4,15.4z"/>
			<path class="st0" d="M55.5,14.6c-0.1-0.1-0.1-0.2-0.2-0.4c-0.3,0.4-0.6,0.6-1.1,0.7c-0.5,0.1-0.9,0-1.2-0.2
				c-0.4-0.2-0.6-0.5-0.6-0.9c-0.1-0.5,0-0.9,0.4-1.3c0.3-0.3,0.8-0.6,1.6-0.7l0.6-0.1l0-0.3c0-0.2-0.1-0.4-0.3-0.5
				c-0.1-0.1-0.3-0.1-0.6-0.1c-0.2,0-0.4,0.1-0.5,0.2c-0.1,0.1-0.1,0.3-0.1,0.5l-1.3,0.2c0-0.3,0-0.5,0.1-0.8
				c0.1-0.3,0.3-0.5,0.6-0.7c0.3-0.2,0.6-0.3,1-0.4c0.6-0.1,1.1,0,1.5,0.2c0.4,0.2,0.6,0.6,0.7,1.2l0.3,2.1c0.1,0.5,0.2,0.8,0.4,1
				l0,0.1L55.5,14.6z M54.3,13.9c0.2,0,0.4-0.1,0.5-0.2c0.1-0.1,0.2-0.2,0.3-0.4l-0.1-0.8l-0.5,0.1c-0.6,0.1-0.9,0.4-0.9,0.8l0,0.1
				c0,0.2,0.1,0.3,0.2,0.4C53.9,13.9,54.1,13.9,54.3,13.9z"/>
			<path class="st0" d="M60.4,12.8c0-0.2-0.1-0.3-0.3-0.4c-0.2-0.1-0.4-0.1-0.8-0.2c-1.2-0.2-1.8-0.6-1.8-1.4c0-0.4,0.1-0.8,0.5-1.1
				c0.3-0.3,0.8-0.5,1.4-0.5c0.6,0,1.1,0.1,1.5,0.3c0.4,0.3,0.6,0.6,0.6,1.1l-1.3,0.1c0-0.2-0.1-0.3-0.2-0.4
				c-0.1-0.1-0.3-0.2-0.6-0.1c-0.2,0-0.4,0.1-0.5,0.2c-0.1,0.1-0.2,0.2-0.2,0.4c0,0.1,0.1,0.3,0.2,0.3c0.1,0.1,0.4,0.1,0.7,0.2
				c0.3,0,0.6,0.1,0.8,0.2c0.7,0.2,1.1,0.6,1.1,1.2c0,0.4-0.1,0.8-0.5,1.1c-0.4,0.3-0.8,0.5-1.4,0.5c-0.4,0-0.8,0-1.1-0.2
				c-0.3-0.1-0.6-0.3-0.8-0.5c-0.2-0.2-0.3-0.5-0.3-0.8l1.2-0.1c0,0.2,0.1,0.4,0.3,0.5c0.2,0.1,0.4,0.2,0.6,0.1
				c0.2,0,0.4-0.1,0.6-0.2C60.3,13.1,60.4,12.9,60.4,12.8z"/>
			<path class="st0" d="M65.5,11.6c0.1-0.7,0.3-1.3,0.7-1.7c0.4-0.4,0.9-0.6,1.4-0.5c0.5,0,0.8,0.3,1.1,0.6L69,7.6l1.3,0.1l-0.7,6.8
				l-1.2-0.1l0-0.5c-0.4,0.4-0.8,0.5-1.3,0.5c-0.6-0.1-1-0.3-1.3-0.8C65.6,13.1,65.5,12.4,65.5,11.6z M66.8,11.9
				c0,0.5,0,0.8,0.1,1.1s0.3,0.4,0.6,0.4c0.4,0,0.7-0.1,0.9-0.4l0.2-1.9c-0.1-0.4-0.4-0.5-0.8-0.6C67.3,10.4,66.9,10.9,66.8,11.9z"
				/>
			<path class="st0" d="M71.2,12.3c0.1-0.5,0.3-0.9,0.5-1.2c0.3-0.3,0.6-0.6,1-0.7c0.4-0.1,0.8-0.1,1.2,0c0.6,0.1,1.1,0.4,1.4,0.9
				c0.3,0.5,0.4,1.1,0.3,1.7l-0.1,0.3c-0.2,0.7-0.5,1.3-1,1.6c-0.5,0.3-1.1,0.5-1.8,0.3c-0.7-0.1-1.2-0.5-1.5-1
				C71.1,13.7,71,13.1,71.2,12.3L71.2,12.3z M72.5,12.6c-0.1,0.4-0.1,0.8,0,1.1c0.1,0.3,0.3,0.4,0.6,0.5c0.3,0.1,0.6,0,0.8-0.2
				s0.4-0.6,0.5-1.1c0.1-0.4,0.1-0.8,0-1.1c-0.1-0.3-0.3-0.5-0.6-0.5c-0.3-0.1-0.6,0-0.8,0.2C72.7,11.8,72.6,12.1,72.5,12.6z"/>
			<path class="st0" d="M84.4,16.7c-0.3,0.6-0.8,1-1.3,1.2c-0.6,0.2-1.2,0.1-1.9-0.1c-0.8-0.3-1.3-0.8-1.5-1.5
				c-0.2-0.7-0.2-1.5,0.2-2.4l0.2-0.4c0.2-0.6,0.6-1,0.9-1.4c0.4-0.4,0.8-0.6,1.3-0.7c0.5-0.1,1,0,1.5,0.2c0.7,0.3,1.2,0.7,1.4,1.2
				c0.3,0.5,0.3,1.2,0.1,1.9l-1.2-0.5c0.1-0.4,0.1-0.7,0-1c-0.1-0.3-0.4-0.5-0.7-0.6c-0.4-0.2-0.8-0.1-1.1,0.1
				c-0.3,0.2-0.6,0.6-0.9,1.2L81,14.4c-0.3,0.6-0.4,1.2-0.3,1.5c0.1,0.4,0.3,0.7,0.7,0.8c0.4,0.2,0.7,0.2,1,0.1
				c0.3-0.1,0.5-0.3,0.7-0.7L84.4,16.7z"/>
			<path class="st0" d="M85.4,17c0.2-0.4,0.5-0.8,0.9-1c0.3-0.2,0.7-0.4,1.1-0.4c0.4,0,0.8,0.1,1.2,0.3c0.6,0.3,0.9,0.7,1.1,1.3
				c0.2,0.5,0.1,1.1-0.2,1.8l-0.1,0.3c-0.4,0.7-0.8,1.1-1.4,1.3c-0.6,0.2-1.2,0.1-1.8-0.2c-0.6-0.3-1-0.8-1.1-1.4
				C84.9,18.4,85,17.7,85.4,17L85.4,17z M86.5,17.7c-0.2,0.4-0.3,0.8-0.3,1.1c0,0.3,0.2,0.5,0.5,0.7c0.3,0.1,0.5,0.2,0.8,0
				c0.3-0.1,0.5-0.4,0.8-0.9c0.2-0.4,0.3-0.7,0.3-1c0-0.3-0.2-0.5-0.5-0.7c-0.3-0.2-0.6-0.2-0.8,0C87,16.9,86.8,17.2,86.5,17.7z"/>
			<path class="st0" d="M93,18.7l-0.3,0.5c0.5-0.2,1-0.1,1.5,0.3c0.4,0.3,0.6,0.6,0.7,1c0,0.4-0.1,0.8-0.5,1.3l-1.8,2.5l-1.1-0.8
				l1.8-2.5c0.2-0.2,0.2-0.4,0.2-0.6c0-0.2-0.2-0.3-0.4-0.5c-0.3-0.2-0.6-0.2-0.9-0.1l-2,2.8L89.2,22L92,18L93,18.7z"/>
			<path class="st0" d="M95.1,23.2c0.5-0.6,1-0.9,1.6-1c0.6-0.1,1.1,0.1,1.5,0.5c0.4,0.4,0.6,0.8,0.6,1.2l0.3-0.3l0.9,0.8l-3.1,3.5
				c-0.3,0.3-0.6,0.5-1,0.6c-0.4,0.1-0.7,0.1-1.1,0c-0.4-0.1-0.7-0.3-1.1-0.6c-0.3-0.2-0.5-0.5-0.6-0.9c-0.2-0.3-0.2-0.6-0.2-0.9
				l1-0.2c0,0.5,0.2,0.9,0.5,1.2c0.3,0.2,0.5,0.3,0.8,0.3c0.3,0,0.5-0.1,0.7-0.4l0.2-0.2c-0.4,0.1-0.9-0.1-1.2-0.4
				c-0.4-0.4-0.6-0.9-0.6-1.5C94.2,24.4,94.5,23.8,95.1,23.2L95.1,23.2z M96,24.2c-0.3,0.3-0.5,0.6-0.5,0.9c0,0.3,0.1,0.6,0.3,0.8
				c0.3,0.3,0.6,0.3,0.9,0.2l1.4-1.5c0.1-0.3,0-0.6-0.3-0.9c-0.2-0.2-0.5-0.3-0.8-0.2C96.6,23.6,96.3,23.8,96,24.2z"/>
			<path class="st0" d="M102.1,28.5c-0.1-0.1-0.2-0.3-0.3-0.4c-0.3-0.4-0.7-0.5-1-0.4l-2.3,2.1l-0.9-1l3.6-3.3l0.8,0.9l-0.4,0.4
				c0.5-0.1,0.9,0,1.2,0.3c0.1,0.1,0.2,0.2,0.2,0.3L102.1,28.5z"/>
			<path class="st0" d="M101.3,33.4c-0.4-0.6-0.6-1.2-0.5-1.8c0.1-0.6,0.4-1.1,1-1.6l0.1-0.1c0.4-0.3,0.8-0.5,1.2-0.6
				c0.4-0.1,0.8,0,1.2,0.1c0.4,0.1,0.7,0.4,1,0.7c0.4,0.5,0.6,1.1,0.4,1.6c-0.1,0.6-0.5,1.1-1.1,1.5l-0.4,0.3l-1.9-2.4
				c-0.2,0.2-0.4,0.5-0.4,0.8c0,0.3,0.1,0.6,0.3,0.8c0.3,0.4,0.7,0.6,1.1,0.6l-0.2,0.9c-0.3,0-0.7-0.1-1-0.2S101.5,33.7,101.3,33.4z
				 M104.3,30.9c-0.2-0.2-0.4-0.3-0.6-0.3c-0.2,0-0.5,0-0.8,0.2l1.1,1.4l0.1-0.1c0.2-0.2,0.4-0.4,0.4-0.6
				C104.6,31.3,104.5,31.1,104.3,30.9z"/>
			<path class="st0" d="M105.6,37.3c0.1-0.1,0.2-0.2,0.2-0.4c0-0.2-0.1-0.4-0.2-0.8c-0.4-1.1-0.3-1.9,0.4-2.2
				c0.4-0.2,0.8-0.3,1.2-0.1c0.4,0.2,0.8,0.5,1.1,1c0.3,0.5,0.4,1,0.4,1.5c-0.1,0.5-0.3,0.8-0.7,1.1l-0.7-1.1
				c0.2-0.1,0.3-0.2,0.3-0.4c0-0.2,0-0.4-0.1-0.6c-0.1-0.2-0.2-0.3-0.4-0.4c-0.1-0.1-0.3,0-0.4,0c-0.1,0.1-0.2,0.2-0.2,0.4
				c0,0.2,0,0.4,0.2,0.7c0.1,0.3,0.2,0.6,0.2,0.8c0.1,0.7-0.1,1.2-0.6,1.5c-0.4,0.2-0.8,0.3-1.2,0.1c-0.4-0.2-0.8-0.5-1.1-1
				c-0.2-0.3-0.3-0.7-0.4-1s0-0.7,0.1-0.9c0.1-0.3,0.3-0.5,0.6-0.7l0.6,1c-0.2,0.1-0.3,0.3-0.3,0.5c0,0.2,0,0.4,0.2,0.6
				c0.1,0.2,0.3,0.3,0.4,0.4C105.3,37.4,105.5,37.4,105.6,37.3z"/>
			<path class="st0" d="M108,41.9c0.1-0.1,0.2-0.2,0.2-0.4c0-0.2,0-0.4-0.1-0.8c-0.3-1.1-0.1-1.9,0.6-2.2c0.4-0.2,0.8-0.2,1.2,0
				c0.4,0.2,0.7,0.6,1,1.1c0.3,0.6,0.3,1.1,0.2,1.5c-0.1,0.5-0.4,0.8-0.8,1l-0.6-1.2c0.2-0.1,0.3-0.2,0.3-0.4c0.1-0.2,0-0.4-0.1-0.6
				c-0.1-0.2-0.2-0.3-0.3-0.4c-0.1-0.1-0.3-0.1-0.4,0c-0.1,0.1-0.2,0.2-0.2,0.3c0,0.2,0,0.4,0.1,0.7c0.1,0.3,0.1,0.6,0.2,0.8
				c0.1,0.7-0.2,1.2-0.7,1.5c-0.4,0.2-0.8,0.2-1.2-0.1c-0.4-0.2-0.7-0.6-1-1.2c-0.2-0.4-0.3-0.7-0.3-1.1c0-0.3,0.1-0.7,0.2-0.9
				c0.2-0.3,0.4-0.5,0.6-0.6l0.5,1.1c-0.2,0.1-0.3,0.3-0.4,0.5c0,0.2,0,0.4,0.1,0.7c0.1,0.2,0.2,0.4,0.4,0.4
				C107.7,42,107.8,42,108,41.9z"/>
			<path class="st0" d="M110,43.7c0.5-0.2,0.9-0.2,1.3-0.2c0.4,0.1,0.8,0.2,1.1,0.5c0.3,0.3,0.5,0.6,0.7,1c0.2,0.6,0.2,1.2,0,1.7
				c-0.2,0.5-0.7,0.9-1.3,1.2l-0.3,0.1c-0.7,0.2-1.3,0.2-1.9,0c-0.6-0.2-1-0.7-1.2-1.4c-0.2-0.7-0.2-1.3,0.1-1.8
				C108.7,44.3,109.2,43.9,110,43.7L110,43.7z M110.3,44.9c-0.4,0.2-0.7,0.3-0.9,0.6c-0.2,0.2-0.2,0.5-0.1,0.8
				c0.1,0.3,0.3,0.5,0.6,0.6c0.3,0.1,0.7,0,1.2-0.1c0.4-0.1,0.7-0.3,0.9-0.6c0.2-0.2,0.2-0.5,0.1-0.8c-0.1-0.3-0.3-0.5-0.6-0.6
				C111.2,44.7,110.8,44.7,110.3,44.9z"/>
			<path class="st0" d="M110.9,57.7l-0.2-1.3l3.8-3.2l-4.2,0.7l-0.2-1.3l6.4-1l0.2,1.3l-3.8,3.2l4.2-0.7l0.2,1.3L110.9,57.7z"/>
			<path class="st0" d="M111.1,61.8c0.1-0.1,0.3-0.1,0.4-0.1c-0.4-0.3-0.5-0.7-0.6-1.2c0-0.5,0.1-0.9,0.4-1.2c0.3-0.3,0.6-0.5,1-0.5
				c0.5,0,0.9,0.2,1.2,0.5s0.4,0.9,0.5,1.6l0,0.6l0.3,0c0.2,0,0.4-0.1,0.5-0.2c0.1-0.1,0.2-0.3,0.2-0.5c0-0.2-0.1-0.4-0.2-0.5
				c-0.1-0.1-0.3-0.2-0.4-0.2l0-1.3c0.3,0,0.5,0.1,0.8,0.2c0.2,0.2,0.4,0.4,0.6,0.7c0.1,0.3,0.2,0.7,0.2,1.1c0,0.6-0.1,1.1-0.4,1.4
				c-0.3,0.4-0.7,0.5-1.2,0.6l-2.1,0.1c-0.5,0-0.8,0.1-1,0.2l-0.1,0L111.1,61.8z M112,60.7c0,0.2,0.1,0.4,0.1,0.5
				c0.1,0.2,0.2,0.3,0.4,0.3l0.8,0l0-0.5c0-0.6-0.3-1-0.7-1l-0.1,0c-0.2,0-0.3,0.1-0.4,0.2C112,60.4,112,60.5,112,60.7z"/>
			<path class="st0" d="M111.9,66.3c0,0.2,0,0.4,0.2,0.6c0.1,0.2,0.3,0.2,0.5,0.3l-0.1,1.2c-0.3,0-0.6-0.1-0.9-0.3
				c-0.3-0.2-0.5-0.5-0.6-0.8c-0.1-0.3-0.2-0.7-0.2-1c0-0.7,0.3-1.2,0.8-1.6c0.5-0.4,1.1-0.5,1.9-0.5l0.1,0c0.7,0.1,1.3,0.3,1.7,0.7
				c0.4,0.4,0.6,1,0.5,1.7c0,0.6-0.3,1.1-0.6,1.4c-0.4,0.3-0.8,0.5-1.4,0.5l0.1-1.2c0.3,0,0.5-0.1,0.6-0.2c0.2-0.1,0.3-0.3,0.3-0.6
				c0-0.3-0.1-0.5-0.3-0.7c-0.2-0.2-0.6-0.3-1-0.3l-0.1,0c-0.5,0-0.9,0-1.1,0.1C112.1,65.8,112,66,111.9,66.3z"/>
			<path class="st0" d="M110.5,70.7l0.2-1.3l4.8,0.7l-0.2,1.3L110.5,70.7z M116.7,70.2c0.2,0,0.3,0.1,0.4,0.3
				c0.1,0.1,0.1,0.3,0.1,0.6c0,0.2-0.1,0.4-0.3,0.5c-0.1,0.1-0.3,0.2-0.5,0.1c-0.2,0-0.3-0.1-0.4-0.3c-0.1-0.2-0.1-0.3-0.1-0.5
				c0-0.2,0.1-0.4,0.3-0.5C116.3,70.3,116.5,70.2,116.7,70.2z"/>
			<path class="st0" d="M112.7,72.4c0.5,0.1,0.9,0.3,1.2,0.6c0.3,0.3,0.5,0.6,0.7,1c0.1,0.4,0.1,0.8,0,1.2c-0.2,0.6-0.5,1.1-1,1.4
				c-0.5,0.3-1.1,0.4-1.7,0.3l-0.3-0.1c-0.7-0.2-1.2-0.5-1.6-1c-0.3-0.5-0.4-1.1-0.3-1.8c0.2-0.7,0.5-1.2,1-1.5
				C111.2,72.3,111.9,72.2,112.7,72.4L112.7,72.4z M112.3,73.7c-0.4-0.1-0.8-0.1-1.1,0c-0.3,0.1-0.5,0.3-0.5,0.6
				c-0.1,0.3,0,0.6,0.2,0.8c0.2,0.2,0.5,0.4,1.1,0.5c0.4,0.1,0.8,0.1,1.1,0c0.3-0.1,0.5-0.3,0.5-0.6c0.1-0.3,0-0.6-0.2-0.8
				C113.1,74,112.8,73.8,112.3,73.7z"/>
			<path class="st0" d="M113,80.1l-0.5-0.2c0.3,0.5,0.3,1,0.1,1.5c-0.2,0.5-0.4,0.8-0.8,0.9c-0.4,0.1-0.8,0.1-1.4-0.1l-2.9-1.1
				l0.4-1.2l2.9,1.1c0.3,0.1,0.5,0.1,0.6,0c0.2-0.1,0.3-0.2,0.4-0.5c0.1-0.3,0.1-0.7-0.2-0.9l-3.2-1.2l0.4-1.2l4.5,1.7L113,80.1z"/>
			<path class="st0" d="M105.7,84.9c0.1,0,0.3,0,0.4,0.1c-0.2-0.4-0.1-0.9,0.1-1.3c0.2-0.4,0.5-0.7,0.9-0.9c0.4-0.2,0.8-0.1,1.1,0
				c0.5,0.2,0.7,0.6,0.8,1c0.1,0.5,0,1-0.4,1.7l-0.3,0.5l0.2,0.1c0.2,0.1,0.4,0.1,0.6,0.1c0.2,0,0.3-0.2,0.4-0.4
				c0.1-0.2,0.1-0.4,0.1-0.5c0-0.2-0.1-0.3-0.3-0.4l0.6-1.2c0.3,0.1,0.4,0.3,0.6,0.6c0.1,0.3,0.2,0.6,0.2,0.9c0,0.3-0.1,0.7-0.3,1
				c-0.3,0.5-0.6,0.9-1,1.1c-0.4,0.2-0.9,0.2-1.4-0.1l-1.9-0.9c-0.4-0.2-0.8-0.3-1-0.3l-0.1,0L105.7,84.9z M107,84.3
				c-0.1,0.2-0.1,0.3-0.1,0.5c0,0.2,0.1,0.3,0.1,0.5l0.7,0.4l0.2-0.4c0.3-0.6,0.2-1-0.1-1.2l-0.1,0c-0.1-0.1-0.3-0.1-0.4,0
				C107.2,84,107.1,84.2,107,84.3z"/>
			<path class="st0" d="M103.8,88.2l0.7-1.1l5.9,3.5l-0.7,1.1L103.8,88.2z"/>
		</g>
		<g>
			<g>
				<path class="st0" d="M55.2,115.5c0.3-1.9,0.4-2.8,0.7-4.7c0.6,0.1,0.9,0.1,1.5,0.2c0.5,0.1,0.9,0.2,1.1,0.4
					c0.2,0.2,0.3,0.6,0.3,1c0,0.2-0.1,0.4-0.2,0.6c-0.1,0.2-0.3,0.3-0.6,0.3c0.3,0.1,0.5,0.3,0.6,0.5c0.1,0.2,0.2,0.5,0.2,0.7
					c0,0.4-0.2,0.7-0.5,1c-0.3,0.2-0.8,0.3-1.3,0.2C56.3,115.6,56,115.6,55.2,115.5z M56.3,112.9c0.4,0.1,0.6,0.1,1,0.1
					c0.3,0,0.5,0,0.7-0.1c0.2-0.1,0.3-0.3,0.3-0.5c0-0.3,0-0.5-0.2-0.6c-0.1-0.1-0.4-0.2-0.7-0.3c-0.4,0-0.6-0.1-0.9-0.1
					C56.4,112,56.4,112.3,56.3,112.9z M56.2,113.4c-0.1,0.7-0.1,1-0.2,1.7c0.5,0.1,0.7,0.1,1.1,0.1c0.3,0,0.6,0,0.8-0.1
					c0.2-0.1,0.3-0.3,0.3-0.6c0.1-0.6-0.2-0.9-0.9-1C56.9,113.5,56.7,113.5,56.2,113.4z"/>
				<path class="st0" d="M61.2,113.1c-0.1,0-0.2,0-0.3,0c-0.4,0-0.7,0.1-0.9,0.5c-0.1,1-0.1,1.5-0.1,2.5c-0.3,0-0.4,0-0.7,0
					c0.1-1.4,0.2-2.1,0.3-3.5c0.2,0,0.4,0,0.6,0c0,0.2,0,0.2,0,0.4c0.2-0.3,0.5-0.4,0.9-0.4c0.1,0,0.2,0,0.3,0.1
					C61.2,112.7,61.2,112.8,61.2,113.1z"/>
				<path class="st0" d="M63.5,116c0-0.1-0.1-0.2-0.1-0.4c-0.3,0.3-0.7,0.4-1.1,0.4c-0.4,0-0.7-0.1-0.9-0.3
					c-0.2-0.2-0.4-0.5-0.3-0.8c0-0.4,0.2-0.6,0.5-0.8c0.3-0.2,0.7-0.3,1.3-0.3c0.3,0,0.4,0,0.6,0c0-0.1,0-0.2,0-0.3
					c0-0.2-0.1-0.4-0.2-0.5c-0.1-0.1-0.3-0.2-0.6-0.2c-0.2,0-0.4,0.1-0.6,0.2c-0.2,0.1-0.2,0.2-0.2,0.4c-0.3,0-0.4,0-0.6,0
					c0-0.2,0.1-0.3,0.2-0.5c0.1-0.2,0.3-0.3,0.5-0.4c0.2-0.1,0.5-0.1,0.7-0.1c0.4,0,0.7,0.1,1,0.3c0.2,0.2,0.4,0.5,0.4,0.8
					c0,0.6,0,1,0.1,1.6c0,0.3,0.1,0.6,0.2,0.8c0,0,0,0,0,0.1C63.9,116,63.8,116,63.5,116z M62.4,115.6c0.2,0,0.4,0,0.6-0.1
					c0.2-0.1,0.3-0.2,0.4-0.4c0-0.3,0-0.4,0-0.7c-0.2,0-0.3,0-0.5,0c-0.8,0-1.2,0.2-1.2,0.6c0,0.2,0.1,0.3,0.2,0.4
					C62,115.5,62.2,115.6,62.4,115.6z"/>
				<path class="st0" d="M66.8,114.9c0-0.2-0.1-0.3-0.2-0.4c-0.1-0.1-0.4-0.1-0.7-0.2c-0.3,0-0.6-0.1-0.8-0.2
					c-0.2-0.1-0.3-0.2-0.4-0.3c-0.1-0.1-0.1-0.3-0.2-0.4c0-0.3,0.1-0.5,0.3-0.7c0.2-0.2,0.6-0.3,0.9-0.4c0.4,0,0.8,0,1,0.2
					c0.3,0.2,0.4,0.4,0.5,0.7c-0.3,0-0.4,0-0.6,0.1c0-0.2-0.1-0.3-0.3-0.4c-0.2-0.1-0.3-0.1-0.6-0.1c-0.2,0-0.4,0.1-0.5,0.2
					c-0.1,0.1-0.2,0.2-0.2,0.4c0,0.1,0.1,0.3,0.2,0.3c0.1,0.1,0.4,0.1,0.7,0.2c0.3,0,0.6,0.1,0.8,0.2c0.2,0.1,0.4,0.2,0.5,0.3
					s0.2,0.3,0.2,0.5c0,0.3-0.1,0.6-0.3,0.8c-0.3,0.2-0.6,0.3-1.1,0.4c-0.3,0-0.6,0-0.8-0.1c-0.2-0.1-0.4-0.2-0.6-0.4
					c-0.1-0.2-0.2-0.4-0.2-0.6c0.3,0,0.4,0,0.7,0c0,0.2,0.1,0.4,0.3,0.5c0.2,0.1,0.4,0.2,0.7,0.1c0.3,0,0.5-0.1,0.6-0.2
					C66.8,115.2,66.8,115.1,66.8,114.9z"/>
				<path class="st0" d="M67.5,111.3c0-0.1,0-0.2,0.1-0.3c0.1-0.1,0.1-0.1,0.3-0.1c0.1,0,0.2,0,0.3,0.1c0.1,0.1,0.1,0.1,0.1,0.2
					c0,0.1,0,0.2-0.1,0.3c-0.1,0.1-0.1,0.1-0.3,0.1c-0.1,0-0.2,0-0.3-0.1C67.5,111.5,67.5,111.4,67.5,111.3z M68.7,115.7
					c-0.3,0-0.4,0.1-0.7,0.1c-0.2-1.4-0.2-2.1-0.4-3.5c0.2,0,0.4,0,0.6-0.1C68.4,113.6,68.5,114.3,68.7,115.7z"/>
				<path class="st0" d="M70,115.5c-0.3,0-0.4,0.1-0.7,0.1c-0.3-2-0.4-3-0.7-4.9c0.2,0,0.4-0.1,0.6-0.1
					C69.5,112.5,69.7,113.5,70,115.5z"/>
			</g>
		</g>
		<g>
			<polygon class="st11" points="47.3,111.7 46,111.5 47,110.6 46.8,109.4 47.9,110 49,109.5 48.7,110.7 49.6,111.6 48.4,111.7 
				47.8,112.8 			"/>
			<g>
				<polygon id="_202182424_4_" class="st0" points="47,109.6 47.9,110.2 48.8,109.7 48.6,110.7 49.3,111.5 48.3,111.6 47.8,112.5 
					47.4,111.5 46.3,111.4 47.1,110.7 				"/>
				<polygon id="_202184584_4_" class="st12" points="47.1,110.7 47.8,110.9 47,109.6 				"/>
				<polygon id="_89588640_4_" class="st12" points="47.8,110.9 47.9,110.2 48.8,109.7 				"/>
				<polygon id="_249109328_4_" class="st12" points="47.8,110.9 48.6,110.7 49.3,111.5 				"/>
				<polygon id="_249110792_4_" class="st12" points="47.8,110.9 48.3,111.6 47.8,112.5 				"/>
				<polygon id="_249111272_4_" class="st12" points="47.8,110.9 46.3,111.4 47.4,111.5 				"/>
			</g>
		</g>
		<g>
			<polygon class="st11" points="40.5,109.1 39.3,108.9 40.2,108 40,106.8 41.1,107.4 42.2,106.9 42,108.1 42.8,109 41.6,109.1 
				41,110.2 			"/>
			<g>
				<polygon id="_202182424_3_" class="st0" points="40.2,107.1 41.1,107.6 42,107.1 41.8,108.2 42.5,108.9 41.5,109 41,109.9 
					40.6,109 39.5,108.8 40.4,108.1 				"/>
				<polygon id="_202184584_3_" class="st12" points="40.4,108.1 41.1,108.4 40.2,107.1 				"/>
				<polygon id="_89588640_3_" class="st12" points="41.1,108.4 41.1,107.6 42,107.1 				"/>
				<polygon id="_249109328_3_" class="st12" points="41.1,108.4 41.8,108.2 42.5,108.9 				"/>
				<polygon id="_249110792_3_" class="st12" points="41.1,108.4 41.5,109 41,109.9 				"/>
				<polygon id="_249111272_3_" class="st12" points="41.1,108.4 39.5,108.8 40.6,109 				"/>
			</g>
		</g>
		<g>
			<polygon class="st11" points="79.1,111.5 80.4,111.3 79.4,110.4 79.6,109.2 78.5,109.8 77.4,109.3 77.6,110.5 76.8,111.4 
				78,111.5 78.6,112.6 			"/>
			<g>
				<polygon id="_202182424_2_" class="st0" points="79.4,109.5 78.5,110 77.6,109.5 77.8,110.6 77.1,111.3 78.1,111.4 78.6,112.3 
					79,111.4 80.1,111.2 79.3,110.5 				"/>
				<polygon id="_202184584_2_" class="st12" points="79.3,110.5 78.6,110.8 79.4,109.5 				"/>
				<polygon id="_89588640_2_" class="st12" points="78.6,110.8 78.5,110 77.6,109.5 				"/>
				<polygon id="_249109328_2_" class="st12" points="78.6,110.8 77.8,110.6 77.1,111.3 				"/>
				<polygon id="_249110792_2_" class="st12" points="78.6,110.8 78.1,111.4 78.6,112.3 				"/>
				<polygon id="_249111272_2_" class="st12" points="78.6,110.8 80.1,111.2 79,111.4 				"/>
			</g>
		</g>
		<g>
			<polygon class="st11" points="85.9,108.9 87.1,108.7 86.2,107.9 86.4,106.6 85.3,107.3 84.2,106.7 84.4,107.9 83.6,108.8 
				84.8,109 85.4,110.1 			"/>
			<g>
				<polygon id="_202182424_1_" class="st0" points="86.2,106.9 85.3,107.4 84.3,107 84.6,108 83.9,108.7 84.9,108.8 85.4,109.7 
					85.8,108.8 86.8,108.6 86,107.9 				"/>
				<polygon id="_202184584_1_" class="st12" points="86,107.9 85.3,108.2 86.2,106.9 				"/>
				<polygon id="_89588640_1_" class="st12" points="85.3,108.2 85.3,107.4 84.3,107 				"/>
				<polygon id="_249109328_1_" class="st12" points="85.3,108.2 84.6,108 83.9,108.7 				"/>
				<polygon id="_249110792_1_" class="st12" points="85.3,108.2 84.9,108.8 85.4,109.7 				"/>
				<polygon id="_249111272_1_" class="st12" points="85.3,108.2 86.8,108.6 85.8,108.8 				"/>
			</g>
		</g>
		<g>
			<g>
				<polygon class="st2" points="16.7,62.6 16.7,62.6 16.7,62.6 				"/>
				<path class="st2" d="M62.6,17.9c24.7,0,44.7,20,44.7,44.7c0,24.7-20,44.7-44.7,44.7v1.3c25.4,0,45.9-20.6,45.9-45.9
					c0-25.4-20.6-45.9-45.9-45.9V17.9z"/>
			</g>
			<path class="st1" d="M62.6,108.5v-1.3c-24.7,0-44.7-20-44.7-44.7c0-24.7,20-44.7,44.7-44.7l1.1-0.5l-1.1-0.7
				c-25.4,0-45.9,20.6-45.9,45.9C16.7,88,37.2,108.5,62.6,108.5z"/>
			<polyline class="st2" points="62.6,107.3 61.5,107.8 62.6,108.5 			"/>
		</g>
		<g>
			<path class="st0" d="M45.3,92.1h-4.7l-0.9,2.7h-2.9l4.8-13h2.5l4.9,13h-2.9L45.3,92.1z M41.3,89.9h3.3l-1.6-4.9L41.3,89.9z"/>
			<path class="st0" d="M53.9,90.2v4.6h-2.7v-13h5.1c1,0,1.8,0.2,2.6,0.5c0.7,0.4,1.3,0.9,1.7,1.5c0.4,0.7,0.6,1.4,0.6,2.2
				c0,1.3-0.4,2.3-1.3,3c-0.9,0.7-2.1,1.1-3.6,1.1H53.9z M53.9,88h2.4c0.7,0,1.2-0.2,1.6-0.5c0.4-0.3,0.6-0.8,0.6-1.4
				c0-0.6-0.2-1.2-0.6-1.5c-0.4-0.4-0.9-0.6-1.6-0.6h-2.5V88z"/>
			<path class="st0" d="M74.1,90.4c-0.1,1.4-0.6,2.5-1.6,3.3c-0.9,0.8-2.2,1.2-3.7,1.2c-1.7,0-3-0.6-3.9-1.7c-1-1.1-1.4-2.7-1.4-4.6
				v-0.8c0-1.3,0.2-2.4,0.7-3.3c0.4-1,1.1-1.7,1.9-2.2c0.8-0.5,1.8-0.8,2.9-0.8c1.5,0,2.7,0.4,3.6,1.2c0.9,0.8,1.4,1.9,1.6,3.4h-2.7
				c-0.1-0.8-0.3-1.4-0.7-1.8s-1-0.6-1.8-0.6c-0.9,0-1.6,0.3-2,1c-0.4,0.6-0.7,1.6-0.7,3v1c0,1.4,0.2,2.4,0.6,3.1c0.4,0.6,1.1,1,2,1
				c0.8,0,1.4-0.2,1.9-0.6c0.4-0.4,0.6-1,0.7-1.8H74.1z"/>
			<path class="st0" d="M87.4,94.8h-2.7l-5.2-8.6v8.6h-2.7v-13h2.7l5.2,8.6v-8.6h2.7V94.8z"/>
		</g>
		<g>
			<path class="st8" d="M57.8,72.2h-0.6v-3.7l-1.1,0.4v-0.5l1.6-0.6h0.1V72.2z"/>
			<path class="st8" d="M61.8,70.3c-0.1,0.1-0.3,0.2-0.4,0.3s-0.3,0.1-0.5,0.1c-0.3,0-0.5-0.1-0.7-0.2c-0.2-0.1-0.3-0.3-0.4-0.5
				c-0.1-0.2-0.2-0.5-0.2-0.7c0-0.3,0.1-0.6,0.2-0.8c0.1-0.2,0.3-0.4,0.5-0.5c0.2-0.1,0.4-0.2,0.7-0.2c0.4,0,0.8,0.2,1,0.5
				c0.2,0.3,0.4,0.8,0.4,1.3v0.2c0,0.8-0.2,1.5-0.5,1.8c-0.3,0.4-0.8,0.6-1.5,0.6h-0.1v-0.5h0.1c0.5,0,0.8-0.1,1-0.4
				C61.6,71.1,61.8,70.8,61.8,70.3z M60.9,70.3c0.2,0,0.4-0.1,0.5-0.2c0.2-0.1,0.3-0.3,0.3-0.4v-0.2c0-0.4-0.1-0.7-0.2-0.9
				s-0.4-0.3-0.6-0.3c-0.2,0-0.4,0.1-0.6,0.3c-0.1,0.2-0.2,0.4-0.2,0.7c0,0.3,0.1,0.5,0.2,0.7C60.5,70.2,60.7,70.3,60.9,70.3z"/>
			<path class="st8" d="M66,69c0,0.2-0.1,0.4-0.2,0.6c-0.1,0.2-0.3,0.3-0.5,0.4c0.2,0.1,0.4,0.2,0.5,0.4c0.1,0.2,0.2,0.4,0.2,0.6
				c0,0.4-0.1,0.7-0.4,0.9c-0.3,0.2-0.6,0.3-1,0.3c-0.4,0-0.8-0.1-1-0.3c-0.3-0.2-0.4-0.5-0.4-0.9c0-0.2,0.1-0.4,0.2-0.6
				c0.1-0.2,0.3-0.3,0.5-0.4c-0.2-0.1-0.3-0.2-0.5-0.4c-0.1-0.2-0.2-0.4-0.2-0.6c0-0.4,0.1-0.7,0.4-0.9c0.2-0.2,0.5-0.3,0.9-0.3
				c0.4,0,0.7,0.1,0.9,0.3C65.9,68.3,66,68.6,66,69z M65.6,71c0-0.2-0.1-0.4-0.2-0.6c-0.2-0.2-0.4-0.2-0.6-0.2
				c-0.2,0-0.4,0.1-0.6,0.2c-0.2,0.2-0.2,0.3-0.2,0.6c0,0.2,0.1,0.4,0.2,0.6c0.1,0.1,0.3,0.2,0.6,0.2c0.3,0,0.5-0.1,0.6-0.2
				C65.5,71.4,65.6,71.2,65.6,71z M64.8,68.2c-0.2,0-0.4,0.1-0.5,0.2C64.1,68.6,64,68.8,64,69c0,0.2,0.1,0.4,0.2,0.5
				c0.1,0.1,0.3,0.2,0.5,0.2c0.2,0,0.4-0.1,0.5-0.2c0.1-0.1,0.2-0.3,0.2-0.5c0-0.2-0.1-0.4-0.2-0.5S65,68.2,64.8,68.2z"/>
			<path class="st8" d="M67.4,70l0.2-2.2h2.2v0.5h-1.8l-0.1,1.2c0.2-0.1,0.5-0.2,0.7-0.2c0.4,0,0.7,0.1,0.9,0.4
				c0.2,0.3,0.3,0.6,0.3,1.1c0,0.4-0.1,0.8-0.4,1.1c-0.2,0.3-0.6,0.4-1,0.4c-0.4,0-0.7-0.1-0.9-0.3c-0.2-0.2-0.4-0.5-0.4-0.9h0.5
				c0,0.2,0.1,0.4,0.3,0.6c0.1,0.1,0.3,0.2,0.6,0.2c0.3,0,0.5-0.1,0.6-0.3c0.1-0.2,0.2-0.4,0.2-0.7c0-0.3-0.1-0.5-0.2-0.7
				c-0.2-0.2-0.4-0.3-0.6-0.3c-0.2,0-0.4,0.1-0.6,0.2l-0.1,0.1L67.4,70z"/>
		</g>
		<circle class="st8" cx="51.7" cy="69.9" r="1.4"/>
		<circle class="st8" cx="74.5" cy="69.9" r="1.4"/>
	</g>
</g>
</svg>
